<?xml version="1.0" encoding="UTF-8" standalone="no"?>
<svg
   version="1.1"
   viewBox="0 0 960 450"
   fill="none"
   stroke="none"
   stroke-linecap="square"
   stroke-miterlimit="10"
   id="svg333"
   width="960"
   height="450"
   xmlns="http://www.w3.org/2000/svg"
   xmlns:svg="http://www.w3.org/2000/svg">
  <defs
     id="defs337">
    <clipPath
       clipPathUnits="userSpaceOnUse"
       id="clipPath1736">
      <circle
         style="fill:#051c59;fill-opacity:1;fill-rule:evenodd;stroke-width:1.3762"
         id="circle1738"
         cx="844.6145"
         cy="228.13312"
         r="18.400833" />
    </clipPath>
  </defs>
  <clipPath
     id="p.0">
    <path
       d="M 0,0 H 960 V 540 H 0 Z"
       clip-rule="nonzero"
       id="path190" />
  </clipPath>
  <path
     fill="#000000"
     fill-opacity="0"
     d="M 272.47245,20.367455 H 686.67719 V 79.61155 H 272.47245 Z"
     fill-rule="evenodd"
     id="path195" />
  <path
     fill="#f29191"
     d="m 290.5662,40.723076 q 1.23438,0 2.3125,0.25 1.07813,0.25 1.96875,0.734375 h 5.51563 v 1.71875 q 0,0.4375 -0.23438,0.6875 -0.21875,0.234375 -0.75,0.328125 l -1.71875,0.3125 q 0.1875,0.484375 0.28125,1.03125 0.10938,0.53125 0.10938,1.140625 0,1.40625 -0.57813,2.5625 -0.5625,1.140625 -1.5625,1.953125 -1,0.796875 -2.375,1.234375 -1.375,0.4375 -2.96875,0.4375 -1.09375,0 -2.10937,-0.203125 -0.90625,0.546875 -0.90625,1.21875 0,0.578125 0.53125,0.84375 0.53125,0.265625 1.40625,0.390625 0.875,0.109375 1.96875,0.140625 1.10937,0.01563 2.26562,0.109375 1.15625,0.09375 2.25,0.328125 1.10938,0.234375 1.96875,0.734375 0.875,0.5 1.40625,1.375 0.53125,0.875 0.53125,2.234375 0,1.265625 -0.625,2.453125 -0.625,1.203125 -1.8125,2.125 -1.1875,0.9375 -2.90625,1.5 -1.71875,0.578125 -3.92187,0.578125 -2.17188,0 -3.78125,-0.421875 -1.60938,-0.421875 -2.67188,-1.125 -1.04687,-0.6875 -1.57812,-1.609375 -0.51563,-0.90625 -0.51563,-1.890625 0,-1.34375 0.8125,-2.265625 0.82813,-0.921875 2.29688,-1.453125 -0.71875,-0.390625 -1.15625,-1.046875 -0.42188,-0.65625 -0.42188,-1.703125 0,-0.421875 0.14063,-0.875 0.15625,-0.46875 0.46875,-0.90625 0.3125,-0.453125 0.76562,-0.84375 0.46875,-0.40625 1.10938,-0.734375 -1.45313,-0.78125 -2.28125,-2.078125 -0.82813,-1.3125 -0.82813,-3.0625 0,-1.421875 0.5625,-2.5625 0.5625,-1.15625 1.57813,-1.96875 1.03125,-0.8125 2.42187,-1.234375 1.39063,-0.4375 3.03125,-0.4375 z m 5.04688,20.34375 q 0,-0.5625 -0.34375,-0.90625 -0.32813,-0.359375 -0.90625,-0.546875 -0.57813,-0.203125 -1.35938,-0.296875 -0.76562,-0.09375 -1.64062,-0.140625 -0.85938,-0.04687 -1.78125,-0.09375 -0.92188,-0.04687 -1.78125,-0.15625 -0.78125,0.421875 -1.26563,1.015625 -0.46875,0.578125 -0.46875,1.34375 0,0.515625 0.25,0.953125 0.25,0.4375 0.79688,0.75 0.5625,0.3125 1.4375,0.484375 0.875,0.1875 2.14062,0.1875 1.29688,0 2.21875,-0.203125 0.9375,-0.1875 1.54688,-0.53125 0.60937,-0.34375 0.875,-0.828125 0.28125,-0.46875 0.28125,-1.03125 z m -5.04688,-10.90625 q 0.85938,0 1.48438,-0.234375 0.64062,-0.234375 1.0625,-0.640625 0.42187,-0.40625 0.625,-0.984375 0.21875,-0.578125 0.21875,-1.265625 0,-1.421875 -0.85938,-2.25 -0.84375,-0.828125 -2.53125,-0.828125 -1.70312,0 -2.5625,0.828125 -0.84375,0.828125 -0.84375,2.25 0,0.671875 0.21875,1.25 0.21875,0.578125 0.64063,1 0.42187,0.40625 1.0625,0.640625 0.64062,0.234375 1.48437,0.234375 z m 17.59863,-17.6875 v 27.734375 h -4.60937 V 32.473076 Z m 20.20969,27.734375 h -2.07813 q -0.64062,0 -1.01562,-0.1875 -0.375,-0.203125 -0.5625,-0.796875 l -0.40625,-1.375 q -0.73438,0.65625 -1.4375,1.15625 -0.70313,0.5 -1.45313,0.84375 -0.73437,0.328125 -1.57812,0.484375 -0.84375,0.171875 -1.85938,0.171875 -1.21875,0 -2.25,-0.328125 -1.01562,-0.328125 -1.76562,-0.96875 -0.73438,-0.65625 -1.14063,-1.625 -0.40625,-0.984375 -0.40625,-2.265625 0,-1.078125 0.5625,-2.125 0.57813,-1.0625 1.89063,-1.90625 1.32812,-0.859375 3.53125,-1.421875 2.20312,-0.5625 5.46875,-0.625 v -1.125 q 0,-1.921875 -0.8125,-2.84375 -0.8125,-0.921875 -2.35938,-0.921875 -1.125,0 -1.875,0.265625 -0.73437,0.25 -1.29687,0.578125 -0.54688,0.328125 -1.01563,0.59375 -0.45312,0.25 -1.01562,0.25 -0.46875,0 -0.8125,-0.234375 -0.32813,-0.25 -0.53125,-0.59375 l -0.84375,-1.484375 q 3.3125,-3.015625 7.96875,-3.015625 1.6875,0 3,0.546875 1.3125,0.546875 2.21875,1.53125 0.92187,0.984375 1.39062,2.34375 0.48438,1.359375 0.48438,2.984375 z m -8.95313,-2.875 q 0.70313,0 1.29688,-0.125 0.60937,-0.140625 1.14062,-0.390625 0.53125,-0.265625 1.01563,-0.640625 0.5,-0.390625 1,-0.921875 v -3.21875 q -2.01563,0.09375 -3.375,0.34375 -1.34375,0.25 -2.17188,0.640625 -0.8125,0.390625 -1.15625,0.921875 -0.34375,0.515625 -0.34375,1.140625 0,1.203125 0.71875,1.734375 0.71875,0.515625 1.875,0.515625 z m 24.85386,-12.546875 q -0.1875,0.296875 -0.39063,0.421875 -0.20312,0.125 -0.51562,0.125 -0.34375,0 -0.73438,-0.1875 -0.375,-0.1875 -0.875,-0.421875 -0.5,-0.234375 -1.15625,-0.421875 -0.64062,-0.1875 -1.51562,-0.1875 -1.35938,0 -2.14063,0.578125 -0.78125,0.578125 -0.78125,1.515625 0,0.625 0.39063,1.046875 0.40625,0.40625 1.0625,0.734375 0.67187,0.3125 1.5,0.5625 0.84375,0.25 1.71875,0.546875 0.875,0.296875 1.71875,0.6875 0.84375,0.375 1.5,0.96875 0.67187,0.59375 1.0625,1.421875 0.40625,0.8125 0.40625,1.96875 0,1.375 -0.5,2.546875 -0.5,1.15625 -1.48438,2.015625 -0.96875,0.84375 -2.39062,1.328125 -1.42188,0.46875 -3.28125,0.46875 -0.98438,0 -1.9375,-0.1875 -0.9375,-0.171875 -1.8125,-0.484375 -0.85938,-0.3125 -1.59375,-0.734375 -0.73438,-0.4375 -1.29688,-0.9375 l 1.0625,-1.765625 q 0.20313,-0.3125 0.48438,-0.46875 0.28125,-0.171875 0.71875,-0.171875 0.42187,0 0.79687,0.25 0.39063,0.234375 0.89063,0.515625 0.51562,0.265625 1.1875,0.515625 0.6875,0.234375 1.73437,0.234375 0.8125,0 1.40625,-0.1875 0.59375,-0.203125 0.96875,-0.515625 0.39063,-0.3125 0.5625,-0.734375 0.17188,-0.421875 0.17188,-0.875 0,-0.671875 -0.40625,-1.09375 -0.39063,-0.4375 -1.0625,-0.75 -0.65625,-0.3125 -1.51563,-0.5625 -0.84375,-0.25 -1.73437,-0.546875 -0.875,-0.3125 -1.73438,-0.703125 -0.84375,-0.40625 -1.51562,-1.015625 -0.65625,-0.625 -1.0625,-1.515625 -0.39063,-0.90625 -0.39063,-2.171875 0,-1.171875 0.46875,-2.234375 0.46875,-1.0625 1.375,-1.859375 0.90625,-0.796875 2.25,-1.265625 1.35938,-0.484375 3.125,-0.484375 1.98438,0 3.60938,0.65625 1.625,0.65625 2.70312,1.71875 z m 16.31243,0 q -0.1875,0.296875 -0.39062,0.421875 -0.20313,0.125 -0.51563,0.125 -0.34375,0 -0.73437,-0.1875 -0.375,-0.1875 -0.875,-0.421875 -0.5,-0.234375 -1.15625,-0.421875 -0.64063,-0.1875 -1.51563,-0.1875 -1.35937,0 -2.14062,0.578125 -0.78125,0.578125 -0.78125,1.515625 0,0.625 0.39062,1.046875 0.40625,0.40625 1.0625,0.734375 0.67188,0.3125 1.5,0.5625 0.84375,0.25 1.71875,0.546875 0.875,0.296875 1.71875,0.6875 0.84375,0.375 1.5,0.96875 0.67188,0.59375 1.0625,1.421875 0.40625,0.8125 0.40625,1.96875 0,1.375 -0.5,2.546875 -0.5,1.15625 -1.48437,2.015625 -0.96875,0.84375 -2.39063,1.328125 -1.42187,0.46875 -3.28125,0.46875 -0.98437,0 -1.9375,-0.1875 -0.9375,-0.171875 -1.8125,-0.484375 -0.85937,-0.3125 -1.59375,-0.734375 -0.73437,-0.4375 -1.29687,-0.9375 l 1.0625,-1.765625 q 0.20312,-0.3125 0.48437,-0.46875 0.28125,-0.171875 0.71875,-0.171875 0.42188,0 0.79688,0.25 0.39062,0.234375 0.89062,0.515625 0.51563,0.265625 1.1875,0.515625 0.6875,0.234375 1.73438,0.234375 0.8125,0 1.40625,-0.1875 0.59375,-0.203125 0.96875,-0.515625 0.39062,-0.3125 0.5625,-0.734375 0.17187,-0.421875 0.17187,-0.875 0,-0.671875 -0.40625,-1.09375 -0.39062,-0.4375 -1.0625,-0.75 -0.65625,-0.3125 -1.51562,-0.5625 -0.84375,-0.25 -1.73438,-0.546875 -0.875,-0.3125 -1.73437,-0.703125 -0.84375,-0.40625 -1.51563,-1.015625 -0.65625,-0.625 -1.0625,-1.515625 -0.39062,-0.90625 -0.39062,-2.171875 0,-1.171875 0.46875,-2.234375 0.46875,-1.0625 1.375,-1.859375 0.90625,-0.796875 2.25,-1.265625 1.35937,-0.484375 3.125,-0.484375 1.98437,0 3.60937,0.65625 1.625,0.65625 2.70313,1.71875 z m 4.34369,2.21875 h 9.67188 v 3.859375 h -9.67188 z m 20.29145,13.5 q -2.48438,0 -3.82813,-1.40625 -1.34375,-1.40625 -1.34375,-3.890625 V 44.504326 h -1.9375 q -0.375,0 -0.64062,-0.234375 -0.26563,-0.25 -0.26563,-0.734375 v -1.828125 l 3.07813,-0.5 0.96875,-5.21875 q 0.0781,-0.375 0.34375,-0.578125 0.26562,-0.21875 0.67187,-0.21875 h 2.39063 v 6.03125 h 5.04687 v 3.28125 h -5.04687 v 10.390625 q 0,0.890625 0.45312,1.390625 0.45313,0.5 1.20313,0.5 0.42187,0 0.70312,-0.09375 0.29688,-0.109375 0.5,-0.21875 0.21875,-0.109375 0.39063,-0.203125 0.17187,-0.109375 0.34375,-0.109375 0.20312,0 0.32812,0.109375 0.14063,0.09375 0.28125,0.296875 l 1.39063,2.234375 q -1.01563,0.84375 -2.32813,1.28125 -1.29687,0.421875 -2.70312,0.421875 z m 16.33667,-19.75 q 2.14062,0 3.89062,0.703125 1.75,0.6875 2.96875,1.953125 1.23438,1.265625 1.90625,3.09375 0.67188,1.828125 0.67188,4.09375 0,2.28125 -0.67188,4.109375 -0.67187,1.828125 -1.90625,3.125 -1.21875,1.28125 -2.96875,1.96875 -1.75,0.6875 -3.89062,0.6875 -2.15625,0 -3.90625,-0.6875 -1.75,-0.6875 -3,-1.96875 -1.23438,-1.296875 -1.92188,-3.125 -0.67187,-1.828125 -0.67187,-4.109375 0,-2.265625 0.67187,-4.09375 0.6875,-1.828125 1.92188,-3.09375 1.25,-1.265625 3,-1.953125 1.75,-0.703125 3.90625,-0.703125 z m 0,16.1875 q 2.39062,0 3.53125,-1.59375 1.15625,-1.609375 1.15625,-4.71875 0,-3.09375 -1.15625,-4.71875 -1.14063,-1.625 -3.53125,-1.625 -2.42188,0 -3.59375,1.640625 -1.15625,1.625 -1.15625,4.703125 0,3.078125 1.15625,4.703125 1.17187,1.609375 3.59375,1.609375 z m 12.43985,-9.9375 h 9.67187 v 3.859375 h -9.67187 z m 20.63519,-6.28125 q 1.23437,0 2.3125,0.25 1.07812,0.25 1.96875,0.734375 h 5.51562 v 1.71875 q 0,0.4375 -0.23437,0.6875 -0.21875,0.234375 -0.75,0.328125 l -1.71875,0.3125 q 0.1875,0.484375 0.28125,1.03125 0.10937,0.53125 0.10937,1.140625 0,1.40625 -0.57812,2.5625 -0.5625,1.140625 -1.5625,1.953125 -1,0.796875 -2.375,1.234375 -1.375,0.4375 -2.96875,0.4375 -1.09375,0 -2.10938,-0.203125 -0.90625,0.546875 -0.90625,1.21875 0,0.578125 0.53125,0.84375 0.53125,0.265625 1.40625,0.390625 0.875,0.109375 1.96875,0.140625 1.10938,0.01563 2.26563,0.109375 1.15625,0.09375 2.25,0.328125 1.10937,0.234375 1.96875,0.734375 0.875,0.5 1.40625,1.375 0.53125,0.875 0.53125,2.234375 0,1.265625 -0.625,2.453125 -0.625,1.203125 -1.8125,2.125 -1.1875,0.9375 -2.90625,1.5 -1.71875,0.578125 -3.92188,0.578125 -2.17187,0 -3.78125,-0.421875 -1.60937,-0.421875 -2.67187,-1.125 -1.04688,-0.6875 -1.57813,-1.609375 -0.51562,-0.90625 -0.51562,-1.890625 0,-1.34375 0.8125,-2.265625 0.82812,-0.921875 2.29687,-1.453125 -0.71875,-0.390625 -1.15625,-1.046875 -0.42187,-0.65625 -0.42187,-1.703125 0,-0.421875 0.14062,-0.875 0.15625,-0.46875 0.46875,-0.90625 0.3125,-0.453125 0.76563,-0.84375 0.46875,-0.40625 1.10937,-0.734375 -1.45312,-0.78125 -2.28125,-2.078125 -0.82812,-1.3125 -0.82812,-3.0625 0,-1.421875 0.5625,-2.5625 0.5625,-1.15625 1.57812,-1.96875 1.03125,-0.8125 2.42188,-1.234375 1.39062,-0.4375 3.03125,-0.4375 z m 5.04687,20.34375 q 0,-0.5625 -0.34375,-0.90625 -0.32812,-0.359375 -0.90625,-0.546875 -0.57812,-0.203125 -1.35937,-0.296875 -0.76563,-0.09375 -1.64063,-0.140625 -0.85937,-0.04687 -1.78125,-0.09375 -0.92187,-0.04687 -1.78125,-0.15625 -0.78125,0.421875 -1.26562,1.015625 -0.46875,0.578125 -0.46875,1.34375 0,0.515625 0.25,0.953125 0.25,0.4375 0.79687,0.75 0.5625,0.3125 1.4375,0.484375 0.875,0.1875 2.14063,0.1875 1.29687,0 2.21875,-0.203125 0.9375,-0.1875 1.54687,-0.53125 0.60938,-0.34375 0.875,-0.828125 0.28125,-0.46875 0.28125,-1.03125 z m -5.04687,-10.90625 q 0.85937,0 1.48437,-0.234375 0.64063,-0.234375 1.0625,-0.640625 0.42188,-0.40625 0.625,-0.984375 0.21875,-0.578125 0.21875,-1.265625 0,-1.421875 -0.85937,-2.25 -0.84375,-0.828125 -2.53125,-0.828125 -1.70313,0 -2.5625,0.828125 -0.84375,0.828125 -0.84375,2.25 0,0.671875 0.21875,1.25 0.21875,0.578125 0.64062,1 0.42188,0.40625 1.0625,0.640625 0.64063,0.234375 1.48438,0.234375 z m 17.59863,-17.6875 v 27.734375 h -4.60937 V 32.473076 Z m 20.20969,27.734375 h -2.07813 q -0.64062,0 -1.01562,-0.1875 -0.375,-0.203125 -0.5625,-0.796875 l -0.40625,-1.375 q -0.73438,0.65625 -1.4375,1.15625 -0.70313,0.5 -1.45313,0.84375 -0.73437,0.328125 -1.57812,0.484375 -0.84375,0.171875 -1.85938,0.171875 -1.21875,0 -2.25,-0.328125 -1.01562,-0.328125 -1.76562,-0.96875 -0.73438,-0.65625 -1.14063,-1.625 -0.40625,-0.984375 -0.40625,-2.265625 0,-1.078125 0.5625,-2.125 0.57813,-1.0625 1.89063,-1.90625 1.32812,-0.859375 3.53125,-1.421875 2.20312,-0.5625 5.46875,-0.625 v -1.125 q 0,-1.921875 -0.8125,-2.84375 -0.8125,-0.921875 -2.35938,-0.921875 -1.125,0 -1.875,0.265625 -0.73437,0.25 -1.29687,0.578125 -0.54688,0.328125 -1.01563,0.59375 -0.45312,0.25 -1.01562,0.25 -0.46875,0 -0.8125,-0.234375 -0.32813,-0.25 -0.53125,-0.59375 l -0.84375,-1.484375 q 3.3125,-3.015625 7.96875,-3.015625 1.6875,0 3,0.546875 1.3125,0.546875 2.21875,1.53125 0.92187,0.984375 1.39062,2.34375 0.48438,1.359375 0.48438,2.984375 z m -8.95313,-2.875 q 0.70313,0 1.29688,-0.125 0.60937,-0.140625 1.14062,-0.390625 0.53125,-0.265625 1.01563,-0.640625 0.5,-0.390625 1,-0.921875 v -3.21875 q -2.01563,0.09375 -3.375,0.34375 -1.34375,0.25 -2.17188,0.640625 -0.8125,0.390625 -1.15625,0.921875 -0.34375,0.515625 -0.34375,1.140625 0,1.203125 0.71875,1.734375 0.71875,0.515625 1.875,0.515625 z m 24.85385,-12.546875 q -0.1875,0.296875 -0.39062,0.421875 -0.20313,0.125 -0.51563,0.125 -0.34375,0 -0.73437,-0.1875 -0.375,-0.1875 -0.875,-0.421875 -0.5,-0.234375 -1.15625,-0.421875 -0.64063,-0.1875 -1.51563,-0.1875 -1.35937,0 -2.14062,0.578125 -0.78125,0.578125 -0.78125,1.515625 0,0.625 0.39062,1.046875 0.40625,0.40625 1.0625,0.734375 0.67188,0.3125 1.5,0.5625 0.84375,0.25 1.71875,0.546875 0.875,0.296875 1.71875,0.6875 0.84375,0.375 1.5,0.96875 0.67188,0.59375 1.0625,1.421875 0.40625,0.8125 0.40625,1.96875 0,1.375 -0.5,2.546875 -0.5,1.15625 -1.48437,2.015625 -0.96875,0.84375 -2.39063,1.328125 -1.42187,0.46875 -3.28125,0.46875 -0.98437,0 -1.9375,-0.1875 -0.9375,-0.171875 -1.8125,-0.484375 -0.85937,-0.3125 -1.59375,-0.734375 -0.73437,-0.4375 -1.29687,-0.9375 l 1.0625,-1.765625 q 0.20312,-0.3125 0.48437,-0.46875 0.28125,-0.171875 0.71875,-0.171875 0.42188,0 0.79688,0.25 0.39062,0.234375 0.89062,0.515625 0.51563,0.265625 1.1875,0.515625 0.6875,0.234375 1.73438,0.234375 0.8125,0 1.40625,-0.1875 0.59375,-0.203125 0.96875,-0.515625 0.39062,-0.3125 0.5625,-0.734375 0.17187,-0.421875 0.17187,-0.875 0,-0.671875 -0.40625,-1.09375 -0.39062,-0.4375 -1.0625,-0.75 -0.65625,-0.3125 -1.51562,-0.5625 -0.84375,-0.25 -1.73438,-0.546875 -0.875,-0.3125 -1.73437,-0.703125 -0.84375,-0.40625 -1.51563,-1.015625 -0.65625,-0.625 -1.0625,-1.515625 -0.39062,-0.90625 -0.39062,-2.171875 0,-1.171875 0.46875,-2.234375 0.46875,-1.0625 1.375,-1.859375 0.90625,-0.796875 2.25,-1.265625 1.35937,-0.484375 3.125,-0.484375 1.98437,0 3.60937,0.65625 1.625,0.65625 2.70313,1.71875 z m 16.31244,0 q -0.1875,0.296875 -0.39062,0.421875 -0.20313,0.125 -0.51563,0.125 -0.34375,0 -0.73437,-0.1875 -0.375,-0.1875 -0.875,-0.421875 -0.5,-0.234375 -1.15625,-0.421875 -0.64063,-0.1875 -1.51563,-0.1875 -1.35937,0 -2.14062,0.578125 -0.78125,0.578125 -0.78125,1.515625 0,0.625 0.39062,1.046875 0.40625,0.40625 1.0625,0.734375 0.67188,0.3125 1.5,0.5625 0.84375,0.25 1.71875,0.546875 0.875,0.296875 1.71875,0.6875 0.84375,0.375 1.5,0.96875 0.67188,0.59375 1.0625,1.421875 0.40625,0.8125 0.40625,1.96875 0,1.375 -0.5,2.546875 -0.5,1.15625 -1.48437,2.015625 -0.96875,0.84375 -2.39063,1.328125 -1.42187,0.46875 -3.28125,0.46875 -0.98437,0 -1.9375,-0.1875 -0.9375,-0.171875 -1.8125,-0.484375 -0.85937,-0.3125 -1.59375,-0.734375 -0.73437,-0.4375 -1.29687,-0.9375 l 1.0625,-1.765625 q 0.20312,-0.3125 0.48437,-0.46875 0.28125,-0.171875 0.71875,-0.171875 0.42188,0 0.79688,0.25 0.39062,0.234375 0.89062,0.515625 0.51563,0.265625 1.1875,0.515625 0.6875,0.234375 1.73438,0.234375 0.8125,0 1.40625,-0.1875 0.59375,-0.203125 0.96875,-0.515625 0.39062,-0.3125 0.5625,-0.734375 0.17187,-0.421875 0.17187,-0.875 0,-0.671875 -0.40625,-1.09375 -0.39062,-0.4375 -1.0625,-0.75 -0.65625,-0.3125 -1.51562,-0.5625 -0.84375,-0.25 -1.73438,-0.546875 -0.875,-0.3125 -1.73437,-0.703125 -0.84375,-0.40625 -1.51563,-1.015625 -0.65625,-0.625 -1.0625,-1.515625 -0.39062,-0.90625 -0.39062,-2.171875 0,-1.171875 0.46875,-2.234375 0.46875,-1.0625 1.375,-1.859375 0.90625,-0.796875 2.25,-1.265625 1.35937,-0.484375 3.125,-0.484375 1.98437,0 3.60937,0.65625 1.625,0.65625 2.70313,1.71875 z m 17.06366,-12.3125 V 60.207451 H 517.1103 V 32.473076 Z m 20.20972,27.734375 h -2.07812 q -0.64063,0 -1.01563,-0.1875 -0.375,-0.203125 -0.5625,-0.796875 l -0.40625,-1.375 q -0.73437,0.65625 -1.4375,1.15625 -0.70312,0.5 -1.45312,0.84375 -0.73438,0.328125 -1.57813,0.484375 -0.84375,0.171875 -1.85937,0.171875 -1.21875,0 -2.25,-0.328125 -1.01563,-0.328125 -1.76563,-0.96875 -0.73437,-0.65625 -1.14062,-1.625 -0.40625,-0.984375 -0.40625,-2.265625 0,-1.078125 0.5625,-2.125 0.57812,-1.0625 1.89062,-1.90625 1.32813,-0.859375 3.53125,-1.421875 2.20313,-0.5625 5.46875,-0.625 v -1.125 q 0,-1.921875 -0.8125,-2.84375 -0.8125,-0.921875 -2.35937,-0.921875 -1.125,0 -1.875,0.265625 -0.73438,0.25 -1.29688,0.578125 -0.54687,0.328125 -1.01562,0.59375 -0.45313,0.25 -1.01563,0.25 -0.46875,0 -0.8125,-0.234375 -0.32812,-0.25 -0.53125,-0.59375 l -0.84375,-1.484375 q 3.3125,-3.015625 7.96875,-3.015625 1.6875,0 3,0.546875 1.3125,0.546875 2.21875,1.53125 0.92188,0.984375 1.39063,2.34375 0.48437,1.359375 0.48437,2.984375 z m -8.95312,-2.875 q 0.70312,0 1.29687,-0.125 0.60938,-0.140625 1.14063,-0.390625 0.53125,-0.265625 1.01562,-0.640625 0.5,-0.390625 1,-0.921875 v -3.21875 q -2.01562,0.09375 -3.375,0.34375 -1.34375,0.25 -2.17187,0.640625 -0.8125,0.390625 -1.15625,0.921875 -0.34375,0.515625 -0.34375,1.140625 0,1.203125 0.71875,1.734375 0.71875,0.515625 1.875,0.515625 z m 19.77569,3.171875 q -2.48437,0 -3.82812,-1.40625 -1.34375,-1.40625 -1.34375,-3.890625 V 44.504326 h -1.9375 q -0.375,0 -0.64063,-0.234375 -0.26562,-0.25 -0.26562,-0.734375 v -1.828125 l 3.07812,-0.5 0.96875,-5.21875 q 0.0781,-0.375 0.34375,-0.578125 0.26563,-0.21875 0.67188,-0.21875 h 2.39062 v 6.03125 h 5.04688 v 3.28125 h -5.04688 v 10.390625 q 0,0.890625 0.45313,1.390625 0.45312,0.5 1.20312,0.5 0.42188,0 0.70313,-0.09375 0.29687,-0.109375 0.5,-0.21875 0.21875,-0.109375 0.39062,-0.203125 0.17188,-0.109375 0.34375,-0.109375 0.20313,0 0.32813,0.109375 0.14062,0.09375 0.28125,0.296875 l 1.39062,2.234375 q -1.01562,0.84375 -2.32812,1.28125 -1.29688,0.421875 -2.70313,0.421875 z m 16.07105,-19.75 q 1.8125,0 3.32812,0.578125 1.53125,0.578125 2.625,1.703125 1.10938,1.109375 1.71875,2.71875 0.625,1.609375 0.625,3.6875 0,0.515625 -0.0469,0.859375 -0.0469,0.34375 -0.17188,0.546875 -0.125,0.1875 -0.32812,0.28125 -0.20313,0.07813 -0.53125,0.07813 H 564.2136 q 0.20313,2.953125 1.57813,4.34375 1.39062,1.375 3.67187,1.375 1.10938,0 1.92188,-0.265625 0.8125,-0.265625 1.42187,-0.578125 0.60938,-0.3125 1.0625,-0.578125 0.46875,-0.265625 0.89063,-0.265625 0.28125,0 0.48437,0.125 0.20313,0.109375 0.35938,0.3125 l 1.34375,1.671875 q -0.76563,0.90625 -1.71875,1.515625 -0.95313,0.59375 -2,0.96875 -1.03125,0.359375 -2.10938,0.5 -1.0625,0.15625 -2.07812,0.15625 -1.98438,0 -3.70313,-0.65625 -1.71875,-0.671875 -3,-1.96875 -1.26562,-1.296875 -2,-3.203125 -0.71875,-1.921875 -0.71875,-4.4375 0,-1.953125 0.625,-3.671875 0.64063,-1.734375 1.82813,-3.015625 1.1875,-1.28125 2.89062,-2.03125 1.71875,-0.75 3.85938,-0.75 z m 0.0937,3.3125 q -2.01563,0 -3.15625,1.140625 -1.14063,1.125 -1.45313,3.21875 h 8.65625 q 0,-0.890625 -0.25,-1.6875 -0.23437,-0.796875 -0.73437,-1.390625 -0.5,-0.59375 -1.26563,-0.9375 -0.76562,-0.34375 -1.79687,-0.34375 z m 11.95196,16.140625 v -19.15625 h 2.8125 q 0.89063,0 1.17188,0.84375 l 0.32812,1.515625 q 0.57813,-0.59375 1.21875,-1.078125 0.64063,-0.484375 1.35938,-0.84375 0.71875,-0.359375 1.53125,-0.546875 0.82812,-0.1875 1.79687,-0.1875 1.57813,0 2.78125,0.53125 1.21875,0.53125 2.03125,1.5 0.8125,0.953125 1.23438,2.296875 0.42187,1.328125 0.42187,2.9375 v 12.1875 h -4.60937 v -12.1875 q 0,-1.75 -0.8125,-2.703125 -0.8125,-0.96875 -2.4375,-0.96875 -1.20313,0 -2.25,0.546875 -1.04688,0.53125 -1.96875,1.46875 v 13.84375 z m 34.6742,-15.09375 q -0.20313,0.25 -0.40625,0.40625 -0.1875,0.140625 -0.5625,0.140625 -0.35938,0 -0.70313,-0.203125 -0.32812,-0.21875 -0.79687,-0.484375 -0.46875,-0.28125 -1.10938,-0.484375 -0.64062,-0.21875 -1.59375,-0.21875 -1.21875,0 -2.14062,0.4375 -0.90625,0.4375 -1.51563,1.265625 -0.59375,0.8125 -0.90625,1.984375 -0.29687,1.15625 -0.29687,2.640625 0,1.53125 0.32812,2.734375 0.32813,1.1875 0.9375,2 0.625,0.8125 1.5,1.234375 0.875,0.40625 1.98438,0.40625 1.09375,0 1.78125,-0.265625 0.6875,-0.265625 1.14062,-0.59375 0.46875,-0.328125 0.8125,-0.59375 0.34375,-0.28125 0.78125,-0.28125 0.5625,0 0.84375,0.4375 l 1.3125,1.671875 q -0.75,0.90625 -1.65625,1.515625 -0.89062,0.59375 -1.85937,0.96875 -0.95313,0.359375 -1.98438,0.5 -1.03125,0.15625 -2.03125,0.15625 -1.78125,0 -3.34375,-0.65625 -1.5625,-0.671875 -2.73437,-1.9375 -1.17188,-1.265625 -1.85938,-3.109375 -0.67187,-1.84375 -0.67187,-4.1875 0,-2.109375 0.60937,-3.90625 0.60938,-1.8125 1.78125,-3.125 1.17188,-1.3125 2.90625,-2.0625 1.75,-0.75 4,-0.75 2.14063,0 3.75,0.703125 1.625,0.6875 2.92188,1.96875 z m 11.13372,20.359375 q -0.20312,0.484375 -0.53125,0.734375 -0.3125,0.25 -0.98437,0.25 h -3.4375 l 3.57812,-7.671875 -7.75,-17.734375 h 4.03125 q 0.5625,0 0.85938,0.265625 0.29687,0.265625 0.45312,0.59375 l 4.09375,9.9375 q 0.20313,0.484375 0.34375,1.015625 0.15625,0.515625 0.26563,1.03125 0.15625,-0.53125 0.32812,-1.03125 0.17188,-0.515625 0.375,-1.03125 l 3.84375,-9.921875 q 0.15625,-0.375 0.5,-0.609375 0.34375,-0.25 0.78125,-0.25 h 3.6875 z"
     fill-rule="nonzero"
     id="path197" />
  <path
     fill="#f4f7ff"
     d="m 37.603688,223.87665 v 0 c 0,-22.83937 18.514965,-41.35434 41.35433,-41.35434 22.839372,0 41.354342,18.51497 41.354342,41.35434 0,22.83936 -18.51497,41.35431 -41.354342,41.35431 -22.839363,0 -41.35433,-18.51495 -41.35433,-41.35431 z"
     fill-rule="evenodd"
     id="path199" />
  <path
     fill="#c3c5cb"
     d="m 61.401574,211.50864 c 0,-2.3791 1.928642,-4.30775 4.307739,-4.30775 2.379105,0 4.307747,1.92865 4.307747,4.30775 0,2.37909 -1.928642,4.30774 -4.307747,4.30774 -2.379097,0 -4.307739,-1.92865 -4.307739,-4.30774 m 26.497406,0 c 0,-2.3791 1.92864,-4.30775 4.30774,-4.30775 2.3791,0 4.30775,1.92865 4.30775,4.30775 0,2.37909 -1.92865,4.30774 -4.30775,4.30774 -2.3791,0 -4.30774,-1.92865 -4.30774,-4.30774"
     fill-rule="evenodd"
     id="path201" />
  <path
     fill="#000000"
     fill-opacity="0"
     d="m 56.5437,241.91154 q 22.414314,15.39372 44.77628,0"
     fill-rule="evenodd"
     id="path203" />
  <path
     fill="#000000"
     fill-opacity="0"
     d="m 37.603688,223.87665 v 0 c 0,-22.83937 18.514965,-41.35434 41.35433,-41.35434 22.839372,0 41.354342,18.51497 41.354342,41.35434 0,22.83936 -18.51497,41.35431 -41.354342,41.35431 -22.839363,0 -41.35433,-18.51495 -41.35433,-41.35431 z"
     fill-rule="evenodd"
     id="path205" />
  <path
     stroke="#051c59"
     stroke-width="1"
     stroke-linejoin="round"
     stroke-linecap="butt"
     d="m 61.401574,211.50864 c 0,-2.3791 1.928642,-4.30775 4.307739,-4.30775 2.379105,0 4.307747,1.92865 4.307747,4.30775 0,2.37909 -1.928642,4.30774 -4.307747,4.30774 -2.379097,0 -4.307739,-1.92865 -4.307739,-4.30774 m 26.497406,0 c 0,-2.3791 1.92864,-4.30775 4.30774,-4.30775 2.3791,0 4.30775,1.92865 4.30775,4.30775 0,2.37909 -1.92865,4.30774 -4.30775,4.30774 -2.3791,0 -4.30774,-1.92865 -4.30774,-4.30774"
     fill-rule="evenodd"
     id="path207" />
  <path
     stroke="#051c59"
     stroke-width="1"
     stroke-linejoin="round"
     stroke-linecap="butt"
     d="m 56.5437,241.91154 q 22.414314,15.39372 44.77628,0"
     fill-rule="evenodd"
     id="path209" />
  <path
     stroke="#051c59"
     stroke-width="1"
     stroke-linejoin="round"
     stroke-linecap="butt"
     d="m 37.603688,223.87665 v 0 c 0,-22.83937 18.514965,-41.35434 41.35433,-41.35434 22.839372,0 41.354342,18.51497 41.354342,41.35434 0,22.83936 -18.51497,41.35431 -41.354342,41.35431 -22.839363,0 -41.35433,-18.51495 -41.35433,-41.35431 z"
     fill-rule="evenodd"
     id="path211" />
  <path
     fill="#000000"
     fill-opacity="0"
     d="m 143.30709,223.87665 h 31.40158"
     fill-rule="evenodd"
     id="path213" />
  <path
     stroke="#051c59"
     stroke-width="8"
     stroke-linejoin="round"
     stroke-linecap="butt"
     d="m 143.30709,223.87665 h 31.40158"
     fill-rule="evenodd"
     id="path215" />
  <path
     fill="#051c59"
     stroke="#051c59"
     stroke-width="8"
     stroke-linecap="butt"
     d="m 174.70867,237.0905 36.30478,-13.21385 -36.30478,-13.21387 z"
     fill-rule="evenodd"
     id="path217" />
  <path
     stroke="#051c59"
     stroke-width="0.447436"
     stroke-linejoin="round"
     stroke-linecap="butt"
     d="m 234.0133,207.15612 32.21537,11.82175 v 10.29115 l -32.21537,11.82175 z"
     fill-rule="evenodd"
     id="path221"
     style="fill:#f4f7ff;fill-opacity:1;stroke-width:1;stroke-miterlimit:10;stroke-dasharray:none" />
  <path
     fill="#000000"
     fill-opacity="0"
     d="m 337.7743,223.87665 h 31.40155"
     fill-rule="evenodd"
     id="path223" />
  <path
     stroke="#051c59"
     stroke-width="8"
     stroke-linejoin="round"
     stroke-linecap="butt"
     d="m 337.7743,223.87665 h 31.40155"
     fill-rule="evenodd"
     id="path225" />
  <path
     fill="#051c59"
     stroke="#051c59"
     stroke-width="8"
     stroke-linecap="butt"
     d="m 369.17585,237.0905 36.30481,-13.21385 -36.30481,-13.21387 z"
     fill-rule="evenodd"
     id="path227" />
  <path
     fill="#000000"
     fill-opacity="0"
     d="m 551.39106,223.87665 h 31.40161"
     fill-rule="evenodd"
     id="path229" />
  <path
     stroke="#051c59"
     stroke-width="8"
     stroke-linejoin="round"
     stroke-linecap="butt"
     d="m 551.39106,223.87665 h 31.40161"
     fill-rule="evenodd"
     id="path231" />
  <path
     fill="#051c59"
     stroke="#051c59"
     stroke-width="8"
     stroke-linecap="butt"
     d="m 582.79267,237.0905 36.30475,-13.21385 -36.30475,-13.21387 z"
     fill-rule="evenodd"
     id="path233" />
  <path
     fill="#000000"
     fill-opacity="0"
     d="m 30.56694,327.18896 h 97.29134 v 42.01575 H 30.56694 Z"
     fill-rule="evenodd"
     id="path235" />
  <path
     fill="#000000"
     d="m 58.906335,344.51523 q 1.03125,0 1.859375,0.34375 0.84375,0.34375 1.421875,0.98437 0.59375,0.625 0.90625,1.53125 0.3125,0.89063 0.3125,2 0,1.125 -0.3125,2.03125 -0.3125,0.89063 -0.90625,1.53125 -0.578125,0.625 -1.421875,0.96875 -0.828125,0.32813 -1.859375,0.32813 -1.03125,0 -1.875,-0.32813 -0.828125,-0.34375 -1.421875,-0.96875 -0.578125,-0.64062 -0.90625,-1.53125 -0.3125,-0.90625 -0.3125,-2.03125 0,-1.10937 0.3125,-2 0.328125,-0.90625 0.90625,-1.53125 0.59375,-0.64062 1.421875,-0.98437 0.84375,-0.34375 1.875,-0.34375 z m 0,8.42187 q 1.390625,0 2.078125,-0.9375 0.703125,-0.9375 0.703125,-2.60937 0,-1.6875 -0.703125,-2.625 -0.6875,-0.95313 -2.078125,-0.95313 -0.703125,0 -1.234375,0.25 -0.515625,0.23438 -0.875,0.70313 -0.34375,0.45312 -0.515625,1.125 -0.171875,0.65625 -0.171875,1.5 0,0.84375 0.171875,1.5 0.171875,0.65625 0.515625,1.10937 0.359375,0.45313 0.875,0.70313 0.53125,0.23437 1.234375,0.23437 z m 6.607254,1.17188 V 340.3746 h 1.671875 v 5.64063 q 0.578125,-0.67188 1.34375,-1.07813 0.765625,-0.42187 1.734375,-0.42187 0.828125,0 1.484375,0.3125 0.671875,0.29687 1.125,0.90625 0.46875,0.60937 0.71875,1.51562 0.25,0.90625 0.25,2.07813 0,1.04687 -0.28125,1.95312 -0.265625,0.89063 -0.796875,1.54688 -0.53125,0.65625 -1.296875,1.03125 -0.75,0.375 -1.703125,0.375 -0.921875,0 -1.5625,-0.34375 -0.625,-0.35938 -1.109375,-1 l -0.07813,0.85937 q -0.07813,0.35938 -0.4375,0.35938 z m 4.21875,-8.28125 q -0.8125,0 -1.4375,0.375 -0.609375,0.375 -1.109375,1.0625 v 4.5625 q 0.4375,0.625 0.984375,0.875 0.546875,0.25 1.21875,0.25 1.328125,0 2.03125,-0.9375 0.71875,-0.95313 0.71875,-2.6875 0,-0.92188 -0.171875,-1.57813 -0.15625,-0.67187 -0.46875,-1.09375 -0.3125,-0.42187 -0.765625,-0.625 -0.4375,-0.20312 -1,-0.20312 z m 7.991348,-1.17188 v 10.15625 q 0,0.5625 -0.15625,1.04688 -0.140625,0.5 -0.46875,0.85937 -0.3125,0.35938 -0.828125,0.5625 -0.5,0.21875 -1.203125,0.21875 -0.3125,0 -0.5625,-0.0469 -0.25,-0.0469 -0.5,-0.14063 l 0.0625,-0.89062 q 0.03125,-0.125 0.09375,-0.15625 0.0625,-0.0312 0.203125,-0.0312 0.07813,0 0.15625,0 0.07813,0.0156 0.203125,0.0156 0.734375,0 1.03125,-0.34375 0.3125,-0.34375 0.3125,-1.09375 v -10.15625 z m 0.375,-2.96875 q 0,0.25 -0.09375,0.46875 -0.09375,0.20313 -0.265625,0.375 -0.15625,0.15625 -0.375,0.25 -0.21875,0.0937 -0.453125,0.0937 -0.25,0 -0.46875,-0.0937 -0.203125,-0.0937 -0.359375,-0.25 -0.15625,-0.17187 -0.25,-0.375 -0.09375,-0.21875 -0.09375,-0.46875 0,-0.23437 0.09375,-0.45312 0.09375,-0.21875 0.25,-0.375 0.15625,-0.17188 0.359375,-0.26563 0.21875,-0.0937 0.46875,-0.0937 0.234375,0 0.453125,0.0937 0.21875,0.0937 0.375,0.26563 0.171875,0.15625 0.265625,0.375 0.09375,0.21875 0.09375,0.45312 z m 6.269943,2.82813 q 0.84375,0 1.5625,0.28125 0.71875,0.28125 1.23438,0.82812 0.53125,0.53125 0.8125,1.32813 0.29687,0.78125 0.29687,1.78125 0,0.39062 -0.0781,0.53125 -0.0781,0.125 -0.3125,0.125 H 81.5874 q 0.0156,0.89062 0.23438,1.5625 0.23437,0.65625 0.625,1.10937 0.39062,0.4375 0.9375,0.65625 0.54687,0.21875 1.20312,0.21875 0.625,0 1.07813,-0.14062 0.45312,-0.15625 0.78125,-0.3125 0.32812,-0.17188 0.54687,-0.3125 0.21875,-0.15625 0.375,-0.15625 0.21875,0 0.32813,0.15625 l 0.46875,0.60937 q -0.3125,0.375 -0.75,0.65625 -0.42188,0.26563 -0.92188,0.45313 -0.48437,0.17187 -1.01562,0.25 -0.51563,0.0937 -1.01563,0.0937 -0.98437,0 -1.8125,-0.32813 -0.82812,-0.32812 -1.4375,-0.96875 -0.59375,-0.64062 -0.9375,-1.57812 -0.328125,-0.9375 -0.328125,-2.17188 0,-0.98437 0.296875,-1.84375 0.3125,-0.85937 0.875,-1.48437 0.57813,-0.625 1.39063,-0.98438 0.82812,-0.35937 1.85937,-0.35937 z m 0.0312,1.21875 q -1.20312,0 -1.89062,0.70312 -0.6875,0.6875 -0.85938,1.92188 h 5.14063 q 0,-0.57813 -0.17188,-1.0625 -0.15625,-0.48438 -0.46875,-0.82813 -0.29687,-0.35937 -0.75,-0.54687 -0.4375,-0.1875 -1,-0.1875 z m 12.44775,0.60937 q -0.0781,0.0937 -0.15625,0.15625 -0.0781,0.0469 -0.21875,0.0469 -0.14062,0 -0.29687,-0.10938 -0.15625,-0.10937 -0.42188,-0.25 -0.25,-0.14062 -0.60937,-0.25 -0.35938,-0.125 -0.875,-0.125 -0.6875,0 -1.21875,0.25 -0.53125,0.23438 -0.89063,0.70313 -0.35937,0.46875 -0.54687,1.14062 -0.1875,0.65625 -0.1875,1.46875 0,0.85938 0.20312,1.53125 0.20313,0.67188 0.54688,1.125 0.35937,0.45313 0.85937,0.6875 0.51563,0.23438 1.15625,0.23438 0.59375,0 0.98438,-0.14063 0.39062,-0.15625 0.65625,-0.32812 0.26562,-0.17188 0.42187,-0.3125 0.17188,-0.15625 0.34375,-0.15625 0.21875,0 0.3125,0.15625 l 0.46875,0.60937 q -0.60937,0.76563 -1.53125,1.10938 -0.92187,0.34375 -1.95312,0.34375 -0.89063,0 -1.65625,-0.3125 -0.75,-0.32813 -1.3125,-0.95313 -0.5625,-0.625 -0.89063,-1.53125 -0.3125,-0.90625 -0.3125,-2.0625 0,-1.04687 0.29688,-1.9375 0.29687,-0.90625 0.85937,-1.54687 0.5625,-0.65625 1.39063,-1.01563 0.82812,-0.35937 1.90625,-0.35937 0.98437,0 1.75,0.32812 0.76562,0.3125 1.35937,0.89063 z m 5.11872,7.92188 q -1.10938,0 -1.71875,-0.625 -0.59375,-0.625 -0.59375,-1.8125 v -5.78125 h -1.14063 q -0.15625,0 -0.26562,-0.0781 -0.0937,-0.0937 -0.0937,-0.28125 v -0.65625 l 1.54687,-0.20312 0.39063,-2.92188 q 0.0156,-0.14062 0.10937,-0.21875 0.10938,-0.0937 0.26563,-0.0937 h 0.84375 v 3.25 h 2.70312 v 1.20313 h -2.70312 v 5.67187 q 0,0.59375 0.28125,0.89063 0.29687,0.28125 0.75,0.28125 0.26562,0 0.45312,-0.0625 0.20313,-0.0781 0.32813,-0.15625 0.14062,-0.0781 0.23437,-0.14063 0.10938,-0.0781 0.1875,-0.0781 0.125,0 0.23438,0.15625 l 0.48437,0.79687 q -0.4375,0.39063 -1.04687,0.625 -0.59375,0.23438 -1.25,0.23438 z"
     fill-rule="nonzero"
     id="path237" />
  <path
     fill="#000000"
     fill-opacity="0"
     d="M 226.79266,327.18896 H 324.084 v 42.01575 h -97.29134 z"
     fill-rule="evenodd"
     id="path239" />
  <path
     fill="#000000"
     d="m 253.30762,346.34335 q -0.0781,0.0937 -0.15625,0.15625 -0.0781,0.0469 -0.21875,0.0469 -0.14062,0 -0.29687,-0.10937 -0.15625,-0.10938 -0.42188,-0.25 -0.25,-0.14063 -0.60937,-0.25 -0.35938,-0.125 -0.875,-0.125 -0.6875,0 -1.21875,0.25 -0.53125,0.23437 -0.89063,0.70312 -0.35937,0.46875 -0.54687,1.14063 -0.1875,0.65625 -0.1875,1.46875 0,0.85937 0.20312,1.53125 0.20313,0.67187 0.54688,1.125 0.35937,0.45312 0.85937,0.6875 0.51563,0.23437 1.15625,0.23437 0.59375,0 0.98438,-0.14062 0.39062,-0.15625 0.65625,-0.32813 0.26562,-0.17187 0.42187,-0.3125 0.17188,-0.15625 0.34375,-0.15625 0.21875,0 0.3125,0.15625 l 0.46875,0.60938 q -0.60937,0.76562 -1.53125,1.10937 -0.92187,0.34375 -1.95312,0.34375 -0.89063,0 -1.65625,-0.3125 -0.75,-0.32812 -1.3125,-0.95312 -0.5625,-0.625 -0.89063,-1.53125 -0.3125,-0.90625 -0.3125,-2.0625 0,-1.04688 0.29688,-1.9375 0.29687,-0.90625 0.85937,-1.54688 0.5625,-0.65625 1.39063,-1.01562 0.82812,-0.35938 1.90625,-0.35938 0.98437,0 1.75,0.32813 0.76562,0.3125 1.35937,0.89062 z m 9.19684,7.76562 h -0.73438 q -0.23437,0 -0.39062,-0.0781 -0.14063,-0.0781 -0.1875,-0.3125 l -0.1875,-0.875 q -0.375,0.32812 -0.73438,0.59375 -0.35937,0.26562 -0.75,0.45312 -0.39062,0.1875 -0.82812,0.28125 -0.4375,0.0937 -0.98438,0.0937 -0.54687,0 -1.03125,-0.15625 -0.48437,-0.15625 -0.84375,-0.46875 -0.34375,-0.3125 -0.5625,-0.78125 -0.20312,-0.46875 -0.20312,-1.10937 0,-0.5625 0.29687,-1.07813 0.3125,-0.51562 1,-0.90625 0.6875,-0.40625 1.79688,-0.65625 1.10937,-0.26562 2.71875,-0.3125 v -0.73437 q 0,-1.09375 -0.46875,-1.65625 -0.46875,-0.57813 -1.40625,-0.57813 -0.59375,0 -1.01563,0.15625 -0.40625,0.15625 -0.71875,0.35938 -0.29687,0.1875 -0.51562,0.34375 -0.21875,0.14062 -0.4375,0.14062 -0.17188,0 -0.29688,-0.0781 -0.125,-0.0937 -0.20312,-0.21875 l -0.29688,-0.53125 q 0.78125,-0.76563 1.6875,-1.14063 0.90625,-0.375 2.01563,-0.375 0.78125,0 1.39062,0.26563 0.625,0.26562 1.04688,0.73437 0.42187,0.46875 0.625,1.125 0.21875,0.65625 0.21875,1.45313 z m -4.29688,-1.01562 q 0.4375,0 0.79688,-0.0781 0.35937,-0.0937 0.67187,-0.25 0.32813,-0.17187 0.625,-0.40625 0.29688,-0.23437 0.57813,-0.53125 V 349.859 q -1.15625,0.0312 -1.95313,0.1875 -0.79687,0.14063 -1.3125,0.375 -0.5,0.23438 -0.73437,0.54688 -0.21875,0.3125 -0.21875,0.70312 0,0.375 0.125,0.65625 0.125,0.26563 0.32812,0.4375 0.20313,0.17188 0.48438,0.25 0.28125,0.0781 0.60937,0.0781 z m 6.81812,1.01562 v -9.45312 h 0.98437 q 0.35938,0 0.45313,0.34375 l 0.125,0.96875 q 0.51562,-0.64063 1.15625,-1.04688 0.65625,-0.40625 1.51562,-0.40625 0.96875,0 1.5625,0.53125 0.59375,0.53125 0.84375,1.4375 0.20313,-0.51562 0.51563,-0.89062 0.32812,-0.375 0.71875,-0.60938 0.40625,-0.25 0.85937,-0.35937 0.45313,-0.10938 0.92188,-0.10938 0.75,0 1.32812,0.23438 0.57813,0.23437 0.98438,0.70312 0.40625,0.45313 0.625,1.125 0.21875,0.65625 0.21875,1.51563 v 6.01562 h -1.65625 v -6.01562 q 0,-1.10938 -0.5,-1.6875 -0.48438,-0.57813 -1.40625,-0.57813 -0.40625,0 -0.78125,0.15625 -0.35938,0.14063 -0.64063,0.42188 -0.28125,0.28125 -0.45312,0.70312 -0.15625,0.42188 -0.15625,0.98438 v 6.01562 h -1.65625 v -6.01562 q 0,-1.14063 -0.46875,-1.70313 -0.45313,-0.5625 -1.32813,-0.5625 -0.60937,0 -1.14062,0.34375 -0.53125,0.32813 -0.96875,0.89063 v 7.04687 z m 19.06677,-9.59375 q 0.84375,0 1.5625,0.28125 0.71875,0.28125 1.23438,0.82813 0.53125,0.53125 0.8125,1.32812 0.29687,0.78125 0.29687,1.78125 0,0.39063 -0.0781,0.53125 -0.0781,0.125 -0.3125,0.125 h -6.29688 q 0.0156,0.89063 0.23438,1.5625 0.23437,0.65625 0.625,1.10938 0.39062,0.4375 0.9375,0.65625 0.54687,0.21875 1.20312,0.21875 0.625,0 1.07813,-0.14063 0.45312,-0.15625 0.78125,-0.3125 0.32812,-0.17187 0.54687,-0.3125 0.21875,-0.15625 0.375,-0.15625 0.21875,0 0.32813,0.15625 l 0.46875,0.60938 q -0.3125,0.375 -0.75,0.65625 -0.42188,0.26562 -0.92188,0.45312 -0.48437,0.17188 -1.01562,0.25 -0.51563,0.0937 -1.01563,0.0937 -0.98437,0 -1.8125,-0.32812 -0.82812,-0.32813 -1.4375,-0.96875 -0.59375,-0.64063 -0.9375,-1.57813 -0.32812,-0.9375 -0.32812,-2.17187 0,-0.98438 0.29687,-1.84375 0.3125,-0.85938 0.875,-1.48438 0.57813,-0.625 1.39063,-0.98437 0.82812,-0.35938 1.85937,-0.35938 z m 0.0312,1.21875 q -1.20312,0 -1.89062,0.70313 -0.6875,0.6875 -0.85938,1.92187 h 5.14063 q 0,-0.57812 -0.17188,-1.0625 -0.15625,-0.48437 -0.46875,-0.82812 -0.29687,-0.35938 -0.75,-0.54688 -0.4375,-0.1875 -1,-0.1875 z m 5.99463,8.375 v -9.45312 h 0.95312 q 0.26563,0 0.375,0.10937 0.10938,0.0937 0.14063,0.34375 l 0.10937,1.48438 q 0.48438,-0.98438 1.1875,-1.54688 0.71875,-0.5625 1.6875,-0.5625 0.39063,0 0.70313,0.0937 0.32812,0.0937 0.59375,0.25 l -0.21875,1.23438 q -0.0625,0.23437 -0.28125,0.23437 -0.14063,0 -0.40625,-0.0781 -0.26563,-0.0937 -0.75,-0.0937 -0.875,0 -1.45313,0.5 -0.57812,0.5 -0.98437,1.46875 v 6.01562 z m 14.10132,0 h -0.73438 q -0.23437,0 -0.39062,-0.0781 -0.14063,-0.0781 -0.1875,-0.3125 l -0.1875,-0.875 q -0.375,0.32812 -0.73438,0.59375 -0.35937,0.26562 -0.75,0.45312 -0.39062,0.1875 -0.82812,0.28125 -0.4375,0.0937 -0.98438,0.0937 -0.54687,0 -1.03125,-0.15625 -0.48437,-0.15625 -0.84375,-0.46875 -0.34375,-0.3125 -0.5625,-0.78125 -0.20312,-0.46875 -0.20312,-1.10937 0,-0.5625 0.29687,-1.07813 0.3125,-0.51562 1,-0.90625 0.6875,-0.40625 1.79688,-0.65625 1.10937,-0.26562 2.71875,-0.3125 v -0.73437 q 0,-1.09375 -0.46875,-1.65625 -0.46875,-0.57813 -1.40625,-0.57813 -0.59375,0 -1.01563,0.15625 -0.40625,0.15625 -0.71875,0.35938 -0.29687,0.1875 -0.51562,0.34375 -0.21875,0.14062 -0.4375,0.14062 -0.17188,0 -0.29688,-0.0781 -0.125,-0.0937 -0.20312,-0.21875 l -0.29688,-0.53125 q 0.78125,-0.76563 1.6875,-1.14063 0.90625,-0.375 2.01563,-0.375 0.78125,0 1.39062,0.26563 0.625,0.26562 1.04688,0.73437 0.42187,0.46875 0.625,1.125 0.21875,0.65625 0.21875,1.45313 z m -4.29688,-1.01562 q 0.4375,0 0.79688,-0.0781 0.35937,-0.0937 0.67187,-0.25 0.32813,-0.17187 0.625,-0.40625 0.29688,-0.23437 0.57813,-0.53125 V 349.859 q -1.15625,0.0312 -1.95313,0.1875 -0.79687,0.14063 -1.3125,0.375 -0.5,0.23438 -0.73437,0.54688 -0.21875,0.3125 -0.21875,0.70312 0,0.375 0.125,0.65625 0.125,0.26563 0.32812,0.4375 0.20313,0.17188 0.48438,0.25 0.28125,0.0781 0.60937,0.0781 z"
     fill-rule="nonzero"
     id="path241" />
  <path
     fill="#f4f7ff"
     d="m 646.23362,154.17586 h 67.40161 v 139.40157 h -67.40161 z"
     fill-rule="evenodd"
     id="path243" />
  <path
     stroke="#051c59"
     stroke-width="1"
     stroke-linejoin="round"
     stroke-linecap="butt"
     d="m 646.23362,154.17586 h 67.40161 v 139.40157 h -67.40161 z"
     fill-rule="evenodd"
     id="path245" />
  <path
     fill="#000000"
     fill-opacity="0"
     d="m 631.28872,327.18896 h 97.29138 v 42.01575 h -97.29138 z"
     fill-rule="evenodd"
     id="path247" />
  <path
     fill="#000000"
     d="m 659.40602,354.10898 q -0.35937,0 -0.45312,-0.34375 l -0.14063,-1.15625 q -0.60937,0.75 -1.39062,1.1875 -0.78125,0.4375 -1.78125,0.4375 -0.8125,0 -1.48438,-0.3125 -0.65625,-0.3125 -1.125,-0.90625 -0.46875,-0.60938 -0.71875,-1.51563 -0.25,-0.90625 -0.25,-2.07812 0,-1.04688 0.28125,-1.9375 0.28125,-0.90625 0.79688,-1.5625 0.53125,-0.67188 1.28125,-1.04688 0.76562,-0.39062 1.71875,-0.39062 0.875,0 1.48437,0.29687 0.625,0.29688 1.10938,0.82813 v -5.23438 h 1.65625 v 13.73438 z m -3.21875,-1.21875 q 0.8125,0 1.42188,-0.35938 0.60937,-0.375 1.125,-1.0625 v -4.5625 q -0.45313,-0.625 -1,-0.875 -0.54688,-0.25 -1.21875,-0.25 -1.3125,0 -2.03125,0.95313 -0.70313,0.9375 -0.70313,2.6875 0,0.92187 0.15625,1.57812 0.15625,0.65625 0.46875,1.07813 0.3125,0.42187 0.75,0.625 0.45313,0.1875 1.03125,0.1875 z m 8.83508,-8.23438 v 9.45313 h -1.65625 v -9.45313 z m 0.375,-2.96875 q 0,0.25 -0.0937,0.46875 -0.0937,0.20313 -0.26562,0.375 -0.15625,0.15625 -0.375,0.25 -0.21875,0.0937 -0.45313,0.0937 -0.25,0 -0.46875,-0.0937 -0.20312,-0.0937 -0.35937,-0.25 -0.15625,-0.17187 -0.25,-0.375 -0.0937,-0.21875 -0.0937,-0.46875 0,-0.23437 0.0937,-0.45312 0.0937,-0.21875 0.25,-0.375 0.15625,-0.17188 0.35937,-0.26563 0.21875,-0.0937 0.46875,-0.0937 0.23438,0 0.45313,0.0937 0.21875,0.0937 0.375,0.26563 0.17187,0.15625 0.26562,0.375 0.0937,0.21875 0.0937,0.45312 z m 7.9635,4.53125 q -0.10937,0.20313 -0.34375,0.20313 -0.14062,0 -0.3125,-0.0937 -0.17187,-0.10938 -0.4375,-0.23438 -0.25,-0.125 -0.60937,-0.23437 -0.35938,-0.10938 -0.84375,-0.10938 -0.40625,0 -0.75,0.10938 -0.32813,0.10937 -0.57813,0.29687 -0.23437,0.1875 -0.35937,0.4375 -0.125,0.23438 -0.125,0.53125 0,0.35938 0.20312,0.60938 0.21875,0.23437 0.5625,0.42187 0.34375,0.17188 0.78125,0.3125 0.4375,0.125 0.89063,0.28125 0.46875,0.15625 0.90625,0.34375 0.4375,0.1875 0.78125,0.46875 0.35937,0.28125 0.5625,0.6875 0.20312,0.40625 0.20312,0.96875 0,0.65625 -0.23437,1.21875 -0.21875,0.54688 -0.6875,0.95313 -0.45313,0.40625 -1.125,0.64062 -0.65625,0.23438 -1.51563,0.23438 -0.98437,0 -1.79687,-0.32813 -0.79688,-0.32812 -1.35938,-0.82812 l 0.39063,-0.625 q 0.0781,-0.125 0.17187,-0.1875 0.10938,-0.0781 0.28125,-0.0781 0.15625,0 0.34375,0.14063 0.1875,0.125 0.45313,0.28125 0.26562,0.15625 0.64062,0.29687 0.39063,0.125 0.95313,0.125 0.48437,0 0.84375,-0.125 0.375,-0.125 0.60937,-0.32812 0.25,-0.21875 0.35938,-0.5 0.125,-0.28125 0.125,-0.60938 0,-0.39062 -0.21875,-0.64062 -0.20313,-0.25 -0.54688,-0.4375 -0.34375,-0.1875 -0.79687,-0.3125 -0.4375,-0.14063 -0.90625,-0.28125 -0.45313,-0.15625 -0.90625,-0.34375 -0.4375,-0.20313 -0.78125,-0.48438 -0.34375,-0.29687 -0.5625,-0.71875 -0.20313,-0.42187 -0.20313,-1.03125 0,-0.53125 0.21875,-1.03125 0.23438,-0.5 0.65625,-0.875 0.4375,-0.39062 1.0625,-0.60937 0.625,-0.21875 1.42188,-0.21875 0.9375,0 1.67187,0.29687 0.75,0.28125 1.28125,0.79688 z m 2.69062,11.09375 v -12.65625 h 0.98437 q 0.35938,0 0.45313,0.34375 l 0.14062,1.125 q 0.60938,-0.73437 1.39063,-1.1875 0.78125,-0.45312 1.79687,-0.45312 0.8125,0 1.46875,0.3125 0.65625,0.3125 1.125,0.9375 0.46875,0.60937 0.71875,1.51562 0.25,0.90625 0.25,2.07813 0,1.04687 -0.28125,1.95312 -0.28125,0.89063 -0.79687,1.54688 -0.51563,0.65625 -1.28125,1.03125 -0.76563,0.375 -1.71875,0.375 -0.875,0 -1.5,-0.28125 -0.60938,-0.29688 -1.09375,-0.82813 v 4.1875 z m 4.20312,-11.48437 q -0.8125,0 -1.42187,0.375 -0.60938,0.375 -1.125,1.0625 v 4.5625 q 0.46875,0.625 1.01562,0.875 0.54688,0.25 1.21875,0.25 1.3125,0 2.01563,-0.9375 0.70312,-0.95313 0.70312,-2.6875 0,-0.92188 -0.15625,-1.57813 -0.15625,-0.67187 -0.46875,-1.09375 -0.3125,-0.42187 -0.76562,-0.625 -0.4375,-0.20312 -1.01563,-0.20312 z m 7.93884,-5.45313 v 13.73438 h -1.65625 V 340.3746 Z m 9.86976,13.73438 h -0.73438 q -0.23437,0 -0.39062,-0.0781 -0.14063,-0.0781 -0.1875,-0.3125 l -0.1875,-0.875 q -0.375,0.32813 -0.73438,0.59375 -0.35937,0.26563 -0.75,0.45313 -0.39062,0.1875 -0.82812,0.28125 -0.4375,0.0937 -0.98438,0.0937 -0.54687,0 -1.03125,-0.15625 -0.48437,-0.15625 -0.84375,-0.46875 -0.34375,-0.3125 -0.5625,-0.78125 -0.20312,-0.46875 -0.20312,-1.10938 0,-0.5625 0.29687,-1.07812 0.3125,-0.51563 1,-0.90625 0.6875,-0.40625 1.79688,-0.65625 1.10937,-0.26563 2.71875,-0.3125 v -0.73438 q 0,-1.09375 -0.46875,-1.65625 -0.46875,-0.57812 -1.40625,-0.57812 -0.59375,0 -1.01563,0.15625 -0.40625,0.15625 -0.71875,0.35937 -0.29687,0.1875 -0.51562,0.34375 -0.21875,0.14063 -0.4375,0.14063 -0.17188,0 -0.29688,-0.0781 -0.125,-0.0937 -0.20312,-0.21875 l -0.29688,-0.53125 q 0.78125,-0.76562 1.6875,-1.14062 0.90625,-0.375 2.01563,-0.375 0.78125,0 1.39062,0.26562 0.625,0.26563 1.04688,0.73438 0.42187,0.46875 0.625,1.125 0.21875,0.65625 0.21875,1.45312 z m -4.29688,-1.01563 q 0.4375,0 0.79688,-0.0781 0.35937,-0.0937 0.67187,-0.25 0.32813,-0.17188 0.625,-0.40625 0.29688,-0.23438 0.57813,-0.53125 V 349.859 q -1.15625,0.0312 -1.95313,0.1875 -0.79687,0.14062 -1.3125,0.375 -0.5,0.23437 -0.73437,0.54687 -0.21875,0.3125 -0.21875,0.70313 0,0.375 0.125,0.65625 0.125,0.26562 0.32812,0.4375 0.20313,0.17187 0.48438,0.25 0.28125,0.0781 0.60937,0.0781 z m 9.2851,3.8125 q -0.0781,0.17188 -0.20313,0.28125 -0.125,0.125 -0.39062,0.125 h -1.23438 l 1.73438,-3.75 -3.90625,-8.90625 h 1.4375 q 0.21875,0 0.34375,0.10938 0.125,0.10937 0.17187,0.23437 l 2.53125,5.95313 q 0.0781,0.20312 0.14063,0.42187 0.0625,0.20313 0.10937,0.40625 0.0625,-0.20312 0.125,-0.40625 0.0781,-0.21875 0.15625,-0.42187 l 2.45313,-5.95313 q 0.0625,-0.14062 0.1875,-0.23437 0.14062,-0.10938 0.29687,-0.10938 h 1.32813 z"
     fill-rule="nonzero"
     id="path249" />
  <path
     fill="#f4f7ff"
     d="m 455.13648,190.17586 h 67.40161 v 67.40157 h -67.40161 z"
     fill-rule="evenodd"
     id="path251" />
  <path
     stroke="#051c59"
     stroke-width="1"
     stroke-linejoin="round"
     stroke-linecap="butt"
     d="m 455.13648,190.17586 h 67.40161 v 67.40157 h -67.40161 z"
     fill-rule="evenodd"
     id="path253"
     style="stroke-width:1;stroke-miterlimit:10;stroke-dasharray:none" />
  <path
     fill="#000000"
     fill-opacity="0"
     d="M 469.69032,190.17586 V 176.38059"
     fill-rule="evenodd"
     id="path255" />
  <path
     stroke="#051c59"
     stroke-width="4"
     stroke-linejoin="round"
     stroke-linecap="butt"
     d="M 469.69032,190.17586 V 176.38059"
     fill-rule="evenodd"
     id="path257" />
  <path
     fill="#000000"
     fill-opacity="0"
     d="M 488.83729,190.17586 V 176.38059"
     fill-rule="evenodd"
     id="path259" />
  <path
     stroke="#051c59"
     stroke-width="4"
     stroke-linejoin="round"
     stroke-linecap="butt"
     d="M 488.83729,190.17586 V 176.38059"
     fill-rule="evenodd"
     id="path261" />
  <path
     fill="#000000"
     fill-opacity="0"
     d="M 507.13648,190.17586 V 176.38059"
     fill-rule="evenodd"
     id="path263" />
  <path
     stroke="#051c59"
     stroke-width="4"
     stroke-linejoin="round"
     stroke-linecap="butt"
     d="M 507.13648,190.17586 V 176.38059"
     fill-rule="evenodd"
     id="path265" />
  <path
     fill="#000000"
     fill-opacity="0"
     d="M 470.11417,271.3727 V 257.57741"
     fill-rule="evenodd"
     id="path267" />
  <path
     stroke="#051c59"
     stroke-width="4"
     stroke-linejoin="round"
     stroke-linecap="butt"
     d="M 470.11417,271.3727 V 257.57741"
     fill-rule="evenodd"
     id="path269" />
  <path
     fill="#000000"
     fill-opacity="0"
     d="M 489.26118,271.3727 V 257.57741"
     fill-rule="evenodd"
     id="path271" />
  <path
     stroke="#051c59"
     stroke-width="4"
     stroke-linejoin="round"
     stroke-linecap="butt"
     d="M 489.26118,271.3727 V 257.57741"
     fill-rule="evenodd"
     id="path273" />
  <path
     fill="#000000"
     fill-opacity="0"
     d="M 507.56037,271.3727 V 257.57741"
     fill-rule="evenodd"
     id="path275" />
  <path
     stroke="#051c59"
     stroke-width="4"
     stroke-linejoin="round"
     stroke-linecap="butt"
     d="M 507.56037,271.3727 V 257.57741"
     fill-rule="evenodd"
     id="path277" />
  <path
     fill="#000000"
     fill-opacity="0"
     d="M 536.33332,242.59842 H 522.53809"
     fill-rule="evenodd"
     id="path279" />
  <path
     stroke="#051c59"
     stroke-width="4"
     stroke-linejoin="round"
     stroke-linecap="butt"
     d="M 536.33332,242.59842 H 522.53809"
     fill-rule="evenodd"
     id="path281" />
  <path
     fill="#000000"
     fill-opacity="0"
     d="M 536.33332,223.45145 H 522.53809"
     fill-rule="evenodd"
     id="path283" />
  <path
     stroke="#051c59"
     stroke-width="4"
     stroke-linejoin="round"
     stroke-linecap="butt"
     d="M 536.33332,223.45145 H 522.53809"
     fill-rule="evenodd"
     id="path285" />
  <path
     fill="#000000"
     fill-opacity="0"
     d="M 536.33332,205.15224 H 522.53809"
     fill-rule="evenodd"
     id="path287" />
  <path
     stroke="#051c59"
     stroke-width="4"
     stroke-linejoin="round"
     stroke-linecap="butt"
     d="M 536.33332,205.15224 H 522.53809"
     fill-rule="evenodd"
     id="path289" />
  <path
     fill="#000000"
     fill-opacity="0"
     d="M 455.13648,242.17323 H 441.34122"
     fill-rule="evenodd"
     id="path291" />
  <path
     stroke="#051c59"
     stroke-width="4"
     stroke-linejoin="round"
     stroke-linecap="butt"
     d="M 455.13648,242.17323 H 441.34122"
     fill-rule="evenodd"
     id="path293" />
  <path
     fill="#000000"
     fill-opacity="0"
     d="M 455.13648,223.02625 H 441.34122"
     fill-rule="evenodd"
     id="path295" />
  <path
     stroke="#051c59"
     stroke-width="4"
     stroke-linejoin="round"
     stroke-linecap="butt"
     d="M 455.13648,223.02625 H 441.34122"
     fill-rule="evenodd"
     id="path297" />
  <path
     fill="#000000"
     fill-opacity="0"
     d="M 455.13648,204.72704 H 441.34122"
     fill-rule="evenodd"
     id="path299" />
  <path
     stroke="#051c59"
     stroke-width="4"
     stroke-linejoin="round"
     stroke-linecap="butt"
     d="M 455.13648,204.72704 H 441.34122"
     fill-rule="evenodd"
     id="path301" />
  <path
     fill="#000000"
     fill-opacity="0"
     d="M 404.96327,327.18896 H 572.71132 V 391.8189 H 404.96327 Z"
     fill-rule="evenodd"
     id="path303" />
  <path
     fill="#000000"
     d="m 458.08494,351.34335 q 0.14062,0 0.26562,0.125 l 0.71875,0.78125 q -0.82812,0.9375 -2,1.48437 -1.17187,0.53125 -2.82812,0.53125 -1.4375,0 -2.60938,-0.5 -1.17187,-0.5 -2.01562,-1.40625 -0.82813,-0.90625 -1.28125,-2.15625 -0.45313,-1.26562 -0.45313,-2.76562 0,-1.51563 0.48438,-2.76563 0.48437,-1.26562 1.375,-2.17187 0.89062,-0.90625 2.125,-1.40625 1.23437,-0.5 2.73437,-0.5 1.46875,0 2.53125,0.45312 1.07813,0.45313 1.90625,1.25 l -0.59375,0.82813 q -0.0625,0.0937 -0.15625,0.15625 -0.0781,0.0469 -0.23437,0.0469 -0.125,0 -0.26563,-0.0781 -0.125,-0.0937 -0.3125,-0.21875 -0.1875,-0.14063 -0.4375,-0.28125 -0.25,-0.15625 -0.59375,-0.28125 -0.34375,-0.125 -0.8125,-0.21875 -0.45312,-0.0937 -1.04687,-0.0937 -1.07813,0 -1.96875,0.375 -0.89063,0.35937 -1.53125,1.04687 -0.64063,0.6875 -1,1.67188 -0.35938,0.96875 -0.35938,2.1875 0,1.25 0.35938,2.23437 0.35937,0.96875 0.96875,1.64063 0.625,0.67187 1.46875,1.03125 0.85937,0.35937 1.84375,0.35937 0.59375,0 1.0625,-0.0625 0.48437,-0.0781 0.89062,-0.21875 0.40625,-0.15625 0.75,-0.375 0.34375,-0.23437 0.70313,-0.5625 0.15625,-0.14062 0.3125,-0.14062 z m 5.34204,-2.23438 v 5 h -1.79687 v -13.375 h 3.9375 q 1.28125,0 2.21875,0.29688 0.9375,0.29687 1.54687,0.84375 0.60938,0.53125 0.90625,1.29687 0.3125,0.76563 0.3125,1.71875 0,0.92188 -0.32812,1.70313 -0.32813,0.76562 -0.95313,1.32812 -0.625,0.5625 -1.5625,0.875 -0.9375,0.3125 -2.14062,0.3125 z m 0,-1.4375 h 2.14063 q 0.78125,0 1.375,-0.20312 0.59375,-0.20313 0.98437,-0.5625 0.40625,-0.375 0.60938,-0.89063 0.20312,-0.51562 0.20312,-1.125 0,-1.28125 -0.79687,-2 -0.78125,-0.71875 -2.375,-0.71875 h -2.14063 z m 14.60211,5 q 0.84375,0 1.48438,-0.28125 0.65625,-0.28125 1.10937,-0.78125 0.45313,-0.5 0.6875,-1.20312 0.23438,-0.70313 0.23438,-1.54688 v -8.125 h 1.8125 v 8.125 q 0,1.17188 -0.375,2.15625 -0.35938,0.98438 -1.04688,1.71875 -0.6875,0.71875 -1.6875,1.125 -0.98437,0.40625 -2.21875,0.40625 -1.21875,0 -2.21875,-0.40625 -0.98437,-0.40625 -1.67187,-1.125 -0.6875,-0.73437 -1.0625,-1.71875 -0.35938,-0.98437 -0.35938,-2.15625 v -8.125 h 1.79688 v 8.125 q 0,0.84375 0.23437,1.54688 0.23438,0.6875 0.6875,1.20312 0.45313,0.5 1.10938,0.78125 0.65625,0.28125 1.48437,0.28125 z m 7.21491,0.29688 q 0,-0.21875 0.0781,-0.40625 0.0781,-0.20313 0.21875,-0.34375 0.15625,-0.14063 0.35938,-0.21875 0.20312,-0.0937 0.45312,-0.0937 0.26563,0 0.48438,0.10937 0.23437,0.0937 0.375,0.28125 0.14062,0.1875 0.21875,0.42188 0.0781,0.23437 0.0781,0.51562 0,0.42188 -0.125,0.875 -0.125,0.45313 -0.35937,0.89063 -0.21875,0.4375 -0.54688,0.85937 -0.32812,0.42188 -0.75,0.78125 l -0.28125,-0.28125 q -0.125,-0.10937 -0.125,-0.25 0,-0.125 0.14063,-0.25 0.0937,-0.10937 0.23437,-0.28125 0.14063,-0.17187 0.28125,-0.40625 0.15625,-0.21875 0.28125,-0.48437 0.14063,-0.26563 0.1875,-0.57813 h -0.125 q -0.23437,0 -0.4375,-0.0781 -0.1875,-0.0937 -0.34375,-0.23438 -0.14062,-0.15625 -0.21875,-0.35937 -0.0781,-0.21875 -0.0781,-0.46875 z m 14.25888,-0.17188 q 0.54687,0 1,-0.0469 0.45312,-0.0625 0.84375,-0.15625 0.40625,-0.10938 0.76562,-0.25 0.35938,-0.14063 0.70313,-0.32813 v -2.95312 h -2.0625 q -0.1875,0 -0.29688,-0.0937 -0.0937,-0.10938 -0.0937,-0.26563 v -1.01562 h 4.09375 v 5.125 q -0.5,0.35937 -1.04687,0.64062 -0.54688,0.26563 -1.17188,0.45313 -0.60937,0.17187 -1.32812,0.26562 -0.70313,0.0937 -1.53125,0.0937 -1.45313,0 -2.67188,-0.5 -1.20312,-0.5 -2.09375,-1.40625 -0.875,-0.90625 -1.35937,-2.15625 -0.48435,-1.26562 -0.48435,-2.76562 0,-1.53125 0.46872,-2.79688 0.48438,-1.26562 1.375,-2.15625 0.89063,-0.90625 2.15625,-1.39062 1.26563,-0.5 2.82813,-0.5 0.79687,0 1.46875,0.125 0.6875,0.10937 1.26562,0.32812 0.59375,0.21875 1.07813,0.53125 0.5,0.3125 0.9375,0.70313 l -0.51563,0.82812 q -0.15625,0.25 -0.40625,0.25 -0.15625,0 -0.32812,-0.10937 -0.23438,-0.125 -0.53125,-0.3125 -0.28125,-0.1875 -0.70313,-0.35938 -0.40625,-0.17187 -0.98437,-0.29687 -0.5625,-0.125 -1.32813,-0.125 -1.125,0 -2.04687,0.375 -0.90625,0.35937 -1.5625,1.04687 -0.64063,0.6875 -0.98438,1.67188 -0.34375,0.96875 -0.34375,2.1875 0,1.26562 0.35938,2.26562 0.35937,0.98438 1,1.67188 0.65625,0.6875 1.54687,1.0625 0.90625,0.35937 1.98438,0.35937 z m 9.72497,-3.6875 v 5 h -1.79687 v -13.375 h 3.9375 q 1.28125,0 2.21875,0.29688 0.9375,0.29687 1.54687,0.84375 0.60938,0.53125 0.90625,1.29687 0.3125,0.76563 0.3125,1.71875 0,0.92188 -0.32812,1.70313 -0.32813,0.76562 -0.95313,1.32812 -0.625,0.5625 -1.5625,0.875 -0.9375,0.3125 -2.14062,0.3125 z m 0,-1.4375 h 2.14063 q 0.78125,0 1.375,-0.20312 0.59375,-0.20313 0.98437,-0.5625 0.40625,-0.375 0.60938,-0.89063 0.20312,-0.51562 0.20312,-1.125 0,-1.28125 -0.79687,-2 -0.78125,-0.71875 -2.375,-0.71875 h -2.14063 z m 14.60212,5 q 0.84375,0 1.48437,-0.28125 0.65625,-0.28125 1.10938,-0.78125 0.45312,-0.5 0.6875,-1.20312 0.23437,-0.70313 0.23437,-1.54688 v -8.125 h 1.8125 v 8.125 q 0,1.17188 -0.375,2.15625 -0.35937,0.98438 -1.04687,1.71875 -0.6875,0.71875 -1.6875,1.125 -0.98438,0.40625 -2.21875,0.40625 -1.21875,0 -2.21875,-0.40625 -0.98438,-0.40625 -1.67188,-1.125 -0.6875,-0.73437 -1.0625,-1.71875 -0.35937,-0.98437 -0.35937,-2.15625 v -8.125 h 1.79687 v 8.125 q 0,0.84375 0.23438,1.54688 0.23437,0.6875 0.6875,1.20312 0.45312,0.5 1.10937,0.78125 0.65625,0.28125 1.48438,0.28125 z"
     fill-rule="nonzero"
     id="path305" />
  <path
     fill="#000000"
     d="m 446.2772,376.50897 h -0.73438 q -0.23437,0 -0.39062,-0.0781 -0.14063,-0.0781 -0.1875,-0.3125 l -0.1875,-0.875 q -0.375,0.32813 -0.73438,0.59375 -0.35937,0.26563 -0.75,0.45313 -0.39062,0.1875 -0.82812,0.28125 -0.4375,0.0937 -0.98438,0.0937 -0.54687,0 -1.03125,-0.15625 -0.48437,-0.15625 -0.84375,-0.46875 -0.34375,-0.3125 -0.5625,-0.78125 -0.20312,-0.46875 -0.20312,-1.10938 0,-0.5625 0.29687,-1.07812 0.3125,-0.51563 1,-0.90625 0.6875,-0.40625 1.79688,-0.65625 1.10937,-0.26563 2.71875,-0.3125 v -0.73438 q 0,-1.09375 -0.46875,-1.65625 -0.46875,-0.57812 -1.40625,-0.57812 -0.59375,0 -1.01563,0.15625 -0.40625,0.15625 -0.71875,0.35937 -0.29687,0.1875 -0.51562,0.34375 -0.21875,0.14063 -0.4375,0.14063 -0.17188,0 -0.29688,-0.0781 -0.125,-0.0937 -0.20312,-0.21875 l -0.29688,-0.53125 q 0.78125,-0.76562 1.6875,-1.14062 0.90625,-0.375 2.01563,-0.375 0.78125,0 1.39062,0.26562 0.625,0.26563 1.04688,0.73438 0.42187,0.46875 0.625,1.125 0.21875,0.65625 0.21875,1.45312 z m -4.29688,-1.01563 q 0.4375,0 0.79688,-0.0781 0.35937,-0.0937 0.67187,-0.25 0.32813,-0.17188 0.625,-0.40625 0.29688,-0.23438 0.57813,-0.53125 v -1.96875 q -1.15625,0.0312 -1.95313,0.1875 -0.79687,0.14062 -1.3125,0.375 -0.5,0.23437 -0.73437,0.54687 -0.21875,0.3125 -0.21875,0.70313 0,0.375 0.125,0.65625 0.125,0.26562 0.32812,0.4375 0.20313,0.17187 0.48438,0.25 0.28125,0.0781 0.60937,0.0781 z m 6.81812,1.01563 v -9.45313 h 0.98437 q 0.35938,0 0.45313,0.34375 l 0.125,1.03125 q 0.625,-0.6875 1.375,-1.09375 0.76562,-0.42187 1.76562,-0.42187 0.78125,0 1.35938,0.26562 0.59375,0.25 0.98437,0.71875 0.40625,0.46875 0.60938,1.14063 0.20312,0.65625 0.20312,1.45312 v 6.01563 h -1.65625 v -6.01563 q 0,-1.07812 -0.5,-1.67187 -0.48437,-0.59375 -1.48437,-0.59375 -0.73438,0 -1.375,0.35937 -0.64063,0.35938 -1.1875,0.96875 v 6.95313 z m 17.02911,0 q -0.35937,0 -0.45312,-0.34375 l -0.14063,-1.15625 q -0.60937,0.75 -1.39062,1.1875 -0.78125,0.4375 -1.78125,0.4375 -0.8125,0 -1.48438,-0.3125 -0.65625,-0.3125 -1.125,-0.90625 -0.46875,-0.60938 -0.71875,-1.51563 -0.25,-0.90625 -0.25,-2.07812 0,-1.04688 0.28125,-1.9375 0.28125,-0.90625 0.79688,-1.5625 0.53125,-0.67188 1.28125,-1.04688 0.76562,-0.39062 1.71875,-0.39062 0.875,0 1.48437,0.29687 0.625,0.29688 1.10938,0.82813 v -5.23438 h 1.65625 v 13.73438 z m -3.21875,-1.21875 q 0.8125,0 1.42188,-0.35938 0.60937,-0.375 1.125,-1.0625 v -4.5625 q -0.45313,-0.625 -1,-0.875 -0.54688,-0.25 -1.21875,-0.25 -1.3125,0 -2.03125,0.95313 -0.70313,0.9375 -0.70313,2.6875 0,0.92187 0.15625,1.57812 0.15625,0.65625 0.46875,1.07813 0.3125,0.42187 0.75,0.625 0.45313,0.1875 1.03125,0.1875 z m 10.59201,1.21875 v -9.45313 h 0.98438 q 0.35937,0 0.45312,0.34375 l 0.125,0.96875 q 0.51563,-0.64062 1.15625,-1.04687 0.65625,-0.40625 1.51563,-0.40625 0.96875,0 1.5625,0.53125 0.59375,0.53125 0.84375,1.4375 0.20312,-0.51563 0.51562,-0.89063 0.32813,-0.375 0.71875,-0.60937 0.40625,-0.25 0.85938,-0.35938 0.45312,-0.10937 0.92187,-0.10937 0.75,0 1.32813,0.23437 0.57812,0.23438 0.98437,0.70313 0.40625,0.45312 0.625,1.125 0.21875,0.65625 0.21875,1.51562 v 6.01563 h -1.65625 v -6.01563 q 0,-1.10937 -0.5,-1.6875 -0.48437,-0.57812 -1.40625,-0.57812 -0.40625,0 -0.78125,0.15625 -0.35937,0.14062 -0.64062,0.42187 -0.28125,0.28125 -0.45313,0.70313 -0.15625,0.42187 -0.15625,0.98437 v 6.01563 h -1.65625 v -6.01563 q 0,-1.14062 -0.46875,-1.70312 -0.45312,-0.5625 -1.32812,-0.5625 -0.60938,0 -1.14063,0.34375 -0.53125,0.32812 -0.96875,0.89062 v 7.04688 z m 19.06681,-9.59375 q 0.84372,0 1.56247,0.28125 0.71875,0.28125 1.23437,0.82812 0.53125,0.53125 0.8125,1.32813 0.29688,0.78125 0.29688,1.78125 0,0.39062 -0.0781,0.53125 -0.0781,0.125 -0.3125,0.125 h -6.29684 q 0.0156,0.89062 0.23437,1.5625 0.23438,0.65625 0.625,1.10937 0.39063,0.4375 0.9375,0.65625 0.54688,0.21875 1.20313,0.21875 0.62497,0 1.07809,-0.14062 0.45313,-0.15625 0.78125,-0.3125 0.32813,-0.17188 0.54688,-0.3125 0.21875,-0.15625 0.375,-0.15625 0.21875,0 0.32812,0.15625 l 0.46875,0.60937 q -0.3125,0.375 -0.75,0.65625 -0.42187,0.26563 -0.92187,0.45313 -0.48438,0.17187 -1.01563,0.25 -0.51559,0.0937 -1.01559,0.0937 -0.98438,0 -1.8125,-0.32813 -0.82813,-0.32812 -1.4375,-0.96875 -0.59375,-0.64062 -0.9375,-1.57812 -0.32813,-0.9375 -0.32813,-2.17188 0,-0.98437 0.29688,-1.84375 0.3125,-0.85937 0.875,-1.48437 0.57812,-0.625 1.39062,-0.98438 0.82813,-0.35937 1.85938,-0.35937 z m 0.0312,1.21875 q -1.20313,0 -1.89063,0.70312 -0.6875,0.6875 -0.85937,1.92188 h 5.14059 q 0,-0.57813 -0.17187,-1.0625 -0.15625,-0.48438 -0.46875,-0.82813 -0.29688,-0.35937 -0.75,-0.54687 -0.43747,-0.1875 -0.99997,-0.1875 z m 5.9946,8.375 v -9.45313 h 0.98437 q 0.35938,0 0.45313,0.34375 l 0.125,0.96875 q 0.51562,-0.64062 1.15625,-1.04687 0.65625,-0.40625 1.51562,-0.40625 0.96875,0 1.5625,0.53125 0.59375,0.53125 0.84375,1.4375 0.20313,-0.51563 0.51563,-0.89063 0.32812,-0.375 0.71875,-0.60937 0.40625,-0.25 0.85937,-0.35938 0.45313,-0.10937 0.92188,-0.10937 0.75,0 1.32812,0.23437 0.57813,0.23438 0.98438,0.70313 0.40625,0.45312 0.625,1.125 0.21875,0.65625 0.21875,1.51562 v 6.01563 h -1.65625 v -6.01563 q 0,-1.10937 -0.5,-1.6875 -0.48438,-0.57812 -1.40625,-0.57812 -0.40625,0 -0.78125,0.15625 -0.35938,0.14062 -0.64063,0.42187 -0.28125,0.28125 -0.45312,0.70313 -0.15625,0.42187 -0.15625,0.98437 v 6.01563 h -1.65625 v -6.01563 q 0,-1.14062 -0.46875,-1.70312 -0.45313,-0.5625 -1.32813,-0.5625 -0.60937,0 -1.14062,0.34375 -0.53125,0.32812 -0.96875,0.89062 v 7.04688 z m 19.14495,-9.59375 q 1.03125,0 1.85938,0.34375 0.84375,0.34375 1.42187,0.98437 0.59375,0.625 0.90625,1.53125 0.3125,0.89063 0.3125,2 0,1.125 -0.3125,2.03125 -0.3125,0.89063 -0.90625,1.53125 -0.57812,0.625 -1.42187,0.96875 -0.82813,0.32813 -1.85938,0.32813 -1.03125,0 -1.875,-0.32813 -0.82812,-0.34375 -1.42187,-0.96875 -0.57813,-0.64062 -0.90625,-1.53125 -0.3125,-0.90625 -0.3125,-2.03125 0,-1.10937 0.3125,-2 0.32812,-0.90625 0.90625,-1.53125 0.59375,-0.64062 1.42187,-0.98437 0.84375,-0.34375 1.875,-0.34375 z m 0,8.42187 q 1.39063,0 2.07813,-0.9375 0.70312,-0.9375 0.70312,-2.60937 0,-1.6875 -0.70312,-2.625 -0.6875,-0.95313 -2.07813,-0.95313 -0.70312,0 -1.23437,0.25 -0.51563,0.23438 -0.875,0.70313 -0.34375,0.45312 -0.51563,1.125 -0.17187,0.65625 -0.17187,1.5 0,0.84375 0.17187,1.5 0.17188,0.65625 0.51563,1.10937 0.35937,0.45313 0.875,0.70313 0.53125,0.23437 1.23437,0.23437 z m 6.54474,1.17188 v -9.45313 h 0.95313 q 0.26562,0 0.375,0.10938 0.10937,0.0937 0.14062,0.34375 l 0.10938,1.48437 q 0.48437,-0.98437 1.1875,-1.54687 0.71875,-0.5625 1.6875,-0.5625 0.39062,0 0.70312,0.0937 0.32813,0.0937 0.59375,0.25 l -0.21875,1.23437 q -0.0625,0.23438 -0.28125,0.23438 -0.14062,0 -0.40625,-0.0781 -0.26562,-0.0937 -0.75,-0.0937 -0.875,0 -1.45312,0.5 -0.57813,0.5 -0.98438,1.46875 v 6.01563 z m 10.28406,2.79687 q -0.0781,0.17188 -0.20312,0.28125 -0.125,0.125 -0.39063,0.125 h -1.23437 l 1.73437,-3.75 -3.90625,-8.90625 h 1.4375 q 0.21875,0 0.34375,0.10938 0.125,0.10937 0.17188,0.23437 l 2.53125,5.95313 q 0.0781,0.20312 0.14062,0.42187 0.0625,0.20313 0.10938,0.40625 0.0625,-0.20312 0.125,-0.40625 0.0781,-0.21875 0.15625,-0.42187 l 2.45312,-5.95313 q 0.0625,-0.14062 0.1875,-0.23437 0.14063,-0.10938 0.29688,-0.10938 h 1.32812 z"
     fill-rule="nonzero"
     id="path307" />
  <path
     fill="#f4f7ff"
     d="m 839.69856,273.20734 v 0 c -19.38702,-26.6709 -21.49451,-61.51117 -5.45306,-90.14845 l 79.41595,40.81776 z"
     fill-rule="evenodd"
     id="path309" />
  <path
     fill="#f4f7ff"
     d="m 858.76154,273.20734 v 0 c -19.38702,-26.6709 -21.49451,-61.51117 -5.45306,-90.14845 l 79.41595,40.81776 z"
     fill-rule="evenodd"
     id="path309-3"
     style="fill:#051c59;fill-opacity:1"
     clip-path="url(#clipPath1736)"
     transform="translate(-19.06298)" />
  <path
     stroke="#051c59"
     stroke-width="1"
     stroke-linejoin="round"
     stroke-linecap="butt"
     d="m 839.69856,273.20734 v 0 c -19.38702,-26.6709 -21.49451,-61.51117 -5.45306,-90.14845 l 79.41595,40.81776 z"
     fill-rule="evenodd"
     id="path311" />
  <path
     fill="#000000"
     fill-opacity="0"
     d="m 724.58009,223.87665 h 31.40155"
     fill-rule="evenodd"
     id="path313" />
  <path
     stroke="#051c59"
     stroke-width="8"
     stroke-linejoin="round"
     stroke-linecap="butt"
     d="m 724.58009,223.87665 h 31.40155"
     fill-rule="evenodd"
     id="path315" />
  <path
     fill="#051c59"
     stroke="#051c59"
     stroke-width="8"
     stroke-linecap="butt"
     d="m 755.98162,237.0905 36.30481,-13.21385 -36.30481,-13.21387 z"
     fill-rule="evenodd"
     id="path317" />
  <path
     fill="#000000"
     fill-opacity="0"
     d="m 792.23622,327.18896 h 137.19684 v 42.01575 H 792.23622 Z"
     fill-rule="evenodd"
     id="path319" />
  <path
     fill="#000000"
     d="M 818.13742,354.10898 V 340.3746 h 1.65625 v 5.54688 q 0.60937,-0.64063 1.34375,-1.01563 0.75,-0.39062 1.70312,-0.39062 0.78125,0 1.35938,0.26562 0.59375,0.25 0.98437,0.71875 0.40625,0.46875 0.60938,1.14063 0.20312,0.65625 0.20312,1.45312 v 6.01563 h -1.65625 v -6.01563 q 0,-1.07812 -0.5,-1.67187 -0.48437,-0.59375 -1.48437,-0.59375 -0.73438,0 -1.375,0.35937 -0.64063,0.35938 -1.1875,0.96875 v 6.95313 z m 11.81036,-9.45313 v 6.03125 q 0,1.07813 0.48438,1.67188 0.5,0.57812 1.5,0.57812 0.73437,0 1.375,-0.34375 0.64062,-0.34375 1.1875,-0.96875 v -6.96875 h 1.65625 v 9.45313 h -0.98438 q -0.35937,0 -0.45312,-0.34375 l -0.125,-1.01563 q -0.625,0.67188 -1.39063,1.09375 -0.76562,0.42188 -1.75,0.42188 -0.76562,0 -1.35937,-0.25 -0.59375,-0.26563 -1,-0.73438 -0.39063,-0.46875 -0.59375,-1.125 -0.20313,-0.67187 -0.20313,-1.46875 v -6.03125 z m 8.93543,9.45313 v -9.45313 h 0.98437 q 0.35938,0 0.45313,0.34375 l 0.125,0.96875 q 0.51562,-0.64062 1.15625,-1.04687 0.65625,-0.40625 1.51562,-0.40625 0.96875,0 1.5625,0.53125 0.59375,0.53125 0.84375,1.4375 0.20313,-0.51563 0.51563,-0.89063 0.32812,-0.375 0.71875,-0.60937 0.40625,-0.25 0.85937,-0.35938 0.45313,-0.10937 0.92188,-0.10937 0.75,0 1.32812,0.23437 0.57813,0.23438 0.98438,0.70313 0.40625,0.45312 0.625,1.125 0.21875,0.65625 0.21875,1.51562 v 6.01563 h -1.65625 v -6.01563 q 0,-1.10937 -0.5,-1.6875 -0.48438,-0.57812 -1.40625,-0.57812 -0.40625,0 -0.78125,0.15625 -0.35938,0.14062 -0.64063,0.42187 -0.28125,0.28125 -0.45312,0.70313 -0.15625,0.42187 -0.15625,0.98437 v 6.01563 h -1.65625 v -6.01563 q 0,-1.14062 -0.46875,-1.70312 -0.45313,-0.5625 -1.32813,-0.5625 -0.60937,0 -1.14062,0.34375 -0.53125,0.32812 -0.96875,0.89062 v 7.04688 z m 22.25427,0 h -0.73437 q -0.23438,0 -0.39063,-0.0781 -0.14062,-0.0781 -0.1875,-0.3125 l -0.1875,-0.875 q -0.375,0.32813 -0.73437,0.59375 -0.35938,0.26563 -0.75,0.45313 -0.39063,0.1875 -0.82813,0.28125 -0.4375,0.0937 -0.98437,0.0937 -0.54688,0 -1.03125,-0.15625 -0.48438,-0.15625 -0.84375,-0.46875 -0.34375,-0.3125 -0.5625,-0.78125 -0.20313,-0.46875 -0.20313,-1.10938 0,-0.5625 0.29688,-1.07812 0.3125,-0.51563 1,-0.90625 0.6875,-0.40625 1.79687,-0.65625 1.10938,-0.26563 2.71875,-0.3125 v -0.73438 q 0,-1.09375 -0.46875,-1.65625 -0.46875,-0.57812 -1.40625,-0.57812 -0.59375,0 -1.01562,0.15625 -0.40625,0.15625 -0.71875,0.35937 -0.29688,0.1875 -0.51563,0.34375 -0.21875,0.14063 -0.4375,0.14063 -0.17187,0 -0.29687,-0.0781 -0.125,-0.0937 -0.20313,-0.21875 l -0.29687,-0.53125 q 0.78125,-0.76562 1.6875,-1.14062 0.90625,-0.375 2.01562,-0.375 0.78125,0 1.39063,0.26562 0.625,0.26563 1.04687,0.73438 0.42188,0.46875 0.625,1.125 0.21875,0.65625 0.21875,1.45312 z m -4.29687,-1.01563 q 0.4375,0 0.79687,-0.0781 0.35938,-0.0937 0.67188,-0.25 0.32812,-0.17188 0.625,-0.40625 0.29687,-0.23438 0.57812,-0.53125 V 349.859 q -1.15625,0.0312 -1.95312,0.1875 -0.79688,0.14062 -1.3125,0.375 -0.5,0.23437 -0.73438,0.54687 -0.21875,0.3125 -0.21875,0.70313 0,0.375 0.125,0.65625 0.125,0.26562 0.32813,0.4375 0.20312,0.17187 0.48437,0.25 0.28125,0.0781 0.60938,0.0781 z m 6.81811,1.01563 v -9.45313 h 0.98438 q 0.35937,0 0.45312,0.34375 l 0.125,1.03125 q 0.625,-0.6875 1.375,-1.09375 0.76563,-0.42187 1.76563,-0.42187 0.78125,0 1.35937,0.26562 0.59375,0.25 0.98438,0.71875 0.40625,0.46875 0.60937,1.14063 0.20313,0.65625 0.20313,1.45312 v 6.01563 h -1.65625 v -6.01563 q 0,-1.07812 -0.5,-1.67187 -0.48438,-0.59375 -1.48438,-0.59375 -0.73437,0 -1.375,0.35937 -0.64062,0.35938 -1.1875,0.96875 v 6.95313 z m 17.72351,-9.59375 q 0.84375,0 1.5625,0.28125 0.71875,0.28125 1.23438,0.82812 0.53125,0.53125 0.8125,1.32813 0.29687,0.78125 0.29687,1.78125 0,0.39062 -0.0781,0.53125 -0.0781,0.125 -0.3125,0.125 H 878.601 q 0.0156,0.89062 0.23438,1.5625 0.23437,0.65625 0.625,1.10937 0.39062,0.4375 0.9375,0.65625 0.54687,0.21875 1.20312,0.21875 0.625,0 1.07813,-0.14062 0.45312,-0.15625 0.78125,-0.3125 0.32812,-0.17188 0.54687,-0.3125 0.21875,-0.15625 0.375,-0.15625 0.21875,0 0.32813,0.15625 l 0.46875,0.60937 q -0.3125,0.375 -0.75,0.65625 -0.42188,0.26563 -0.92188,0.45313 -0.48437,0.17187 -1.01562,0.25 -0.51563,0.0937 -1.01563,0.0937 -0.98437,0 -1.8125,-0.32813 -0.82812,-0.32812 -1.4375,-0.96875 -0.59375,-0.64062 -0.9375,-1.57812 -0.32812,-0.9375 -0.32812,-2.17188 0,-0.98437 0.29687,-1.84375 0.3125,-0.85937 0.875,-1.48437 0.57813,-0.625 1.39063,-0.98438 0.82812,-0.35937 1.85937,-0.35937 z m 0.0312,1.21875 q -1.20312,0 -1.89062,0.70312 -0.6875,0.6875 -0.85938,1.92188 h 5.14063 q 0,-0.57813 -0.17188,-1.0625 -0.15625,-0.48438 -0.46875,-0.82813 -0.29687,-0.35937 -0.75,-0.54687 -0.4375,-0.1875 -1,-0.1875 z m 8.51758,11.17187 q -0.0781,0.17188 -0.20313,0.28125 -0.125,0.125 -0.39062,0.125 h -1.23438 l 1.73438,-3.75 -3.90625,-8.90625 h 1.4375 q 0.21875,0 0.34375,0.10938 0.125,0.10937 0.17187,0.23437 l 2.53125,5.95313 q 0.0781,0.20312 0.14063,0.42187 0.0625,0.20313 0.10937,0.40625 0.0625,-0.20312 0.125,-0.40625 0.0781,-0.21875 0.15625,-0.42187 l 2.45313,-5.95313 q 0.0625,-0.14062 0.1875,-0.23437 0.14062,-0.10938 0.29687,-0.10938 h 1.32813 z m 10.29376,-12.39062 q 0.84375,0 1.5625,0.28125 0.71875,0.28125 1.23438,0.82812 0.53125,0.53125 0.8125,1.32813 0.29687,0.78125 0.29687,1.78125 0,0.39062 -0.0781,0.53125 -0.0781,0.125 -0.3125,0.125 h -6.29688 q 0.0156,0.89062 0.23438,1.5625 0.23437,0.65625 0.625,1.10937 0.39062,0.4375 0.9375,0.65625 0.54687,0.21875 1.20312,0.21875 0.625,0 1.07813,-0.14062 0.45312,-0.15625 0.78125,-0.3125 0.32812,-0.17188 0.54687,-0.3125 0.21875,-0.15625 0.375,-0.15625 0.21875,0 0.32813,0.15625 l 0.46875,0.60937 q -0.3125,0.375 -0.75,0.65625 -0.42188,0.26563 -0.92188,0.45313 -0.48437,0.17187 -1.01562,0.25 -0.51563,0.0937 -1.01563,0.0937 -0.98437,0 -1.8125,-0.32813 -0.82812,-0.32812 -1.4375,-0.96875 -0.59375,-0.64062 -0.9375,-1.57812 -0.32812,-0.9375 -0.32812,-2.17188 0,-0.98437 0.29687,-1.84375 0.3125,-0.85937 0.875,-1.48437 0.57813,-0.625 1.39063,-0.98438 0.82812,-0.35937 1.85937,-0.35937 z m 0.0312,1.21875 q -1.20312,0 -1.89062,0.70312 -0.6875,0.6875 -0.85938,1.92188 h 5.14063 q 0,-0.57813 -0.17188,-1.0625 -0.15625,-0.48438 -0.46875,-0.82813 -0.29687,-0.35937 -0.75,-0.54687 -0.4375,-0.1875 -1,-0.1875 z"
     fill-rule="nonzero"
     id="path321" />
  <path
     fill="#000000"
     fill-opacity="0"
     d="M 238.29922,105.70342 720.8504,103.4042"
     fill-rule="evenodd"
     id="path323" />
  <path
     stroke="#f29191"
     stroke-width="4"
     stroke-linejoin="round"
     stroke-linecap="butt"
     d="m 253.45905,105.63118 452.2315,-2.15475"
     fill-rule="evenodd"
     id="path325" />
  <path
     fill="#f29191"
     stroke="#f29191"
     stroke-width="4"
     stroke-linecap="butt"
     d="m 253.4904,112.21111 -13.15985,0.0627 -0.0627,-13.15985 13.15985,-0.06271 z"
     fill-rule="nonzero"
     id="path327" />
  <path
     fill="#f29191"
     stroke="#f29191"
     stroke-width="4"
     stroke-linecap="butt"
     d="m 705.65922,96.89651 13.15985,-0.06271 0.0627,13.15986 -13.15985,0.0627 z"
     fill-rule="nonzero"
     id="path329" />
  <rect
     style="fill:#f4f7ff;fill-opacity:1;stroke:#051c59;stroke-opacity:1"
     id="rect1784"
     width="54.610115"
     height="41.015873"
     x="266.10098"
     y="204.32462" />
  <g
     id="g2221"
     transform="translate(-19.792831)">
    <rect
       style="fill:#f4f7ff;fill-opacity:1;stroke:#051c59;stroke-opacity:1"
       id="rect1786"
       width="18.29014"
       height="18.29014"
       x="338.16016"
       y="-86.479813"
       transform="rotate(45)" />
    <rect
       style="fill:#f4f7ff;fill-opacity:1;stroke:#051c59;stroke-opacity:1"
       id="rect1786-6"
       width="18.29014"
       height="18.29014"
       x="356.45029"
       y="-104.76995"
       transform="rotate(45)" />
  </g>
</svg>
